<?xml version="1.0" encoding="UTF-8" standalone="no"?>
<!-- Created with Inkscape (http://www.inkscape.org/) -->

<svg
   xmlns:dc="http://purl.org/dc/elements/1.1/"
   xmlns:cc="http://creativecommons.org/ns#"
   xmlns:rdf="http://www.w3.org/1999/02/22-rdf-syntax-ns#"
   xmlns:svg="http://www.w3.org/2000/svg"
   xmlns="http://www.w3.org/2000/svg"
   xmlns:xlink="http://www.w3.org/1999/xlink"
   version="1.1"
   width="190"
   height="345"
   id="svg2">
  <defs
     id="defs4">
    <linearGradient
       id="linearGradient4346">
      <stop
         id="stop4348"
         style="stop-color:#f9f900;stop-opacity:1"
         offset="0" />
      <stop
         id="stop4350"
         style="stop-color:#999d00;stop-opacity:0"
         offset="1" />
    </linearGradient>
    <linearGradient
       x1="343.83673"
       y1="534.31787"
       x2="339.75073"
       y2="542.23987"
       id="linearGradient3038"
       xlink:href="#linearGradient4346"
       gradientUnits="userSpaceOnUse" />
    <linearGradient
       x1="343.83673"
       y1="534.31787"
       x2="339.75073"
       y2="542.23987"
       id="linearGradient3040"
       xlink:href="#linearGradient4346"
       gradientUnits="userSpaceOnUse"
       gradientTransform="matrix(-1,0,0,1,768.82225,0)" />
    <linearGradient
       x1="343.83673"
       y1="534.31787"
       x2="339.75073"
       y2="542.23987"
       id="linearGradient3042"
       xlink:href="#linearGradient4346"
       gradientUnits="userSpaceOnUse" />
    <linearGradient
       x1="343.83673"
       y1="534.31787"
       x2="339.75073"
       y2="542.23987"
       id="linearGradient3044"
       xlink:href="#linearGradient4346"
       gradientUnits="userSpaceOnUse"
       gradientTransform="matrix(-1,0,0,1,768.82225,0)" />
    <linearGradient
       x1="343.83673"
       y1="534.31787"
       x2="339.75073"
       y2="542.23987"
       id="linearGradient3046"
       xlink:href="#linearGradient4346"
       gradientUnits="userSpaceOnUse"
       gradientTransform="translate(-289.87722,-281.67421)" />
    <linearGradient
       x1="343.83673"
       y1="534.31787"
       x2="339.75073"
       y2="542.23987"
       id="linearGradient3048"
       xlink:href="#linearGradient4346"
       gradientUnits="userSpaceOnUse"
       gradientTransform="matrix(-1,0,0,1,478.94503,-281.67421)" />
  </defs>
  <metadata
     id="metadata7">
    <rdf:RDF>
      <cc:Work
         rdf:about="">
        <dc:format>image/svg+xml</dc:format>
        <dc:type
           rdf:resource="http://purl.org/dc/dcmitype/StillImage" />
        <dc:title></dc:title>
      </cc:Work>
    </rdf:RDF>
  </metadata>
  <path
     d="m 189.60937,0.046875 -189.218745,0 0,297.343745 94.59375,47.5625 94.593745,-47.5625 z"
     id="path3050"
     style="fill:#040464;fill-opacity:1;stroke:none" />
  <path
     d="m 94.984375,129.76562 c -60.798717,-0.1728 -89,49.96875 -89,49.96875 l 0,9.78125 0,18.1875 89,44.65625 88.999995,-44.65625 0,-18.1875 0,-9.78125 c 0,0 -28.20128,-50.14155 -88.999995,-49.96875 z m 0,18.15625 c 40.804515,0 67.601515,28.31375 80.343745,45.96875 l -80.343745,40.59375 -80.34375,-40.59375 c 12.733162,-17.655 39.539227,-45.96875 80.34375,-45.96875 z"
     id="path3227"
     style="fill:#999d00;fill-opacity:1;stroke:none" />
  <g
     transform="translate(-289.42676,-314.35751)"
     id="g4366">
    <path
       d="m 295.42104,503.86488 0,18.19503 88.99021,44.66052 0,-17.86421 z"
       id="path4338"
       style="fill:url(#linearGradient3038);fill-opacity:1;stroke:none" />
    <path
       d="m 473.40121,503.86488 0,18.19503 -88.99021,44.66052 0,-17.86421 z"
       id="path4362"
       style="fill:url(#linearGradient3040);fill-opacity:1;stroke:none" />
  </g>
  <path
     d="m 5.5182808,228.67001 0,18.1875 89.0000002,44.65629 88.999999,-44.65629 0,-18.1875 L 94.518281,273.6388 5.5182808,228.67001 z"
     id="path3163"
     style="fill:#999d00;fill-opacity:1;stroke:none" />
  <g
     transform="translate(-289.89285,-275.20497)"
     id="g3165">
    <path
       d="m 295.42104,503.86488 0,18.19503 88.99021,44.66052 0,-17.86421 z"
       id="path3167"
       style="fill:url(#linearGradient3042);fill-opacity:1;stroke:none" />
    <path
       d="m 473.40121,503.86488 0,18.19503 -88.99021,44.66052 0,-17.86421 z"
       id="path3169"
       style="fill:url(#linearGradient3044);fill-opacity:1;stroke:none" />
  </g>
  <path
     d="m 5.5182808,268.4664 0,18.1875 89.0000002,44.65628 88.999999,-44.65628 0,-18.1875 L 94.518281,313.43518 5.5182808,268.4664 z"
     id="path3215"
     style="fill:#999d00;fill-opacity:1;stroke:none" />
  <g
     transform="translate(-0.015625,46.265625)"
     id="g4006">
    <path
       d="m 5.54382,222.19067 0,18.19503 88.99021,44.66052 0,-17.86421 z"
       id="path3219"
       style="fill:url(#linearGradient3046);fill-opacity:1;stroke:none" />
    <path
       d="m 183.52399,222.19067 0,18.19503 -88.99021,44.66052 0,-17.86421 z"
       id="path3221"
       style="fill:url(#linearGradient3048);fill-opacity:1;stroke:none" />
  </g>
  <path
     d="m 51.776093,9.804993 -4.83311,14.793402 12.4537,9.333211 -15.562871,-0.02513 -5.028007,14.72829 L 34.020527,33.825834 18.459344,33.595202 31.064748,24.467918 26.475424,9.597074 39.051273,18.765061 51.776093,9.805002 z"
     id="path8132"
     style="fill:#999d00;fill-opacity:1;stroke:none" />
  <path
     d="m 163.92006,9.804993 -4.83311,14.793402 12.4537,9.333211 -15.56287,-0.02513 -5.02801,14.72829 -4.78528,-14.808932 -15.56118,-0.230632 12.6054,-9.127284 -4.58932,-14.870844 12.57585,9.167987 12.72482,-8.960059 z"
     id="path3087"
     style="fill:#999d00;fill-opacity:1;stroke:none" />
  <path
     d="m 95.000004,223.05444 c 0,0 27.319426,-16.71537 27.319426,-42.81453 l 6.7e-4,-17.19201 c -8.32192,5.90399 -18.93184,5.25513 -27.320096,-0.001 -8.388266,5.25692 -18.998231,5.90577 -27.320109,0.001 l 6.68e-4,17.19201 c 0,26.09916 27.319441,42.81453 27.319441,42.81453 z"
     id="path2855"
     style="fill:#999d00;fill-opacity:1;fill-rule:evenodd;stroke:none" />
  <path
     d="m 107.84807,9.804993 -4.83311,14.793402 12.4537,9.333211 -15.562861,-0.02513 -5.028008,14.72829 L 90.092514,33.825834 74.531331,33.595202 87.136735,24.467918 82.547411,9.597074 95.12326,18.765061 107.84807,9.805002 z"
     id="path3077"
     style="fill:#999d00;fill-opacity:1;stroke:none" />
  <path
     d="m 134.2436,85.065885 c 0,0 4.47781,-2.80743 4.39036,-4.087759 0.0362,-0.906445 -0.76312,-1.376726 -0.76312,-1.376726 0,0 5.21131,-3.607327 5.23134,-4.888928 0.0402,-1.027185 -0.6669,-1.412846 -0.6669,-1.412846 3.08876,-2.156551 5.76968,-4.488626 6.64445,-8.334795 0,0 -7.61396,0.148428 -23.17678,9.973191 -21.45358,13.543589 -15.48974,18.617494 -15.48974,18.617494 0,0 5.06395,5.06385 1.93621,9.085264 -3.12773,4.02141 -6.85123,4.02141 -6.85123,4.02141 0,0 -0.0581,-4.26367 -1.6075,-5.1088 -1.5494,-0.84513 1.7243,-12.698042 -1.96704,-17.0833 -2.26615,-2.692151 -3.57456,-3.574444 -10.12791,-2.978812 -6.55335,0.595795 -9.97897,3.574607 -9.97897,3.574607 0,0 -1.48941,1.936212 -0.89365,3.574608 0.59577,1.638232 2.08516,-0.14899 2.08516,-0.14899 0,0 1.78728,1.0426 4.31926,1.489406 0,0 6.28075,1.71265 -1.04369,7.487692 -7.32445,5.775039 -5.65861,8.150989 -5.65861,8.150989 0,0 -7.447,-4.7662 -2.53197,-12.064237 C 83.00828,86.257312 53.07136,69.42717 53.07136,69.42717 c 0,0 -5.80865,-3.127753 -8.48957,-3.574559 -2.68091,-0.446838 -5.80866,-1.191525 -5.80866,-1.191525 l -1.3e-4,-2.01e-4 c 0,0 2.08517,5.212905 4.17032,7.000176 2.08517,1.787222 3.27668,2.383017 3.27668,2.383017 0,0 -0.73692,0.769344 -0.61634,1.500905 -0.0831,0.901104 5.42496,4.377149 5.42496,4.377149 0,0 -1.04359,0.546818 -0.94384,1.521372 0.0504,1.32478 3.58222,3.324233 3.58222,3.324233 0,0 -1.83955,1.112206 -1.79734,2.632526 0.0481,1.730703 1.79734,3.049549 1.79734,3.049549 0,0 -2.13225,1.567831 -1.70961,3.016469 0.34094,1.570942 2.15643,1.727299 2.15643,1.727299 0,0 -2.12325,1.183077 -1.65667,2.829004 0.49154,1.495136 2.40137,1.192409 2.40137,1.192409 0,0 -2.15855,1.742847 -1.40527,3.319357 0.7369,1.54213 3.0436,0.85088 3.0436,0.85088 0,0 -2.20929,2.32129 -1.36114,3.6807 0.72335,1.1595 2.40373,0.63853 2.40373,0.63853 0,0 -1.36483,1.56177 -0.42479,2.85062 0.89071,1.22122 2.84146,1.42059 2.84146,1.42059 0,0 -1.2213,2.01261 -0.17874,2.90639 1.04259,0.89361 2.82988,0.29059 2.82988,0.29059 0,0 -0.77974,2.40798 0.41183,3.45058 1.19151,1.0426 2.99562,-0.0601 2.99562,-0.0601 0,0 -0.37954,2.16693 0.81204,3.06054 1.06902,0.85268 3.14386,-0.56234 3.14386,-0.56234 0,0 0.24653,2.49872 1.1501,3.09812 0.75679,0.50198 2.7828,-0.5373 2.7828,-0.5373 0,0 0.15744,1.89052 1.4979,2.6353 1.34047,0.5102 2.38425,-0.67978 2.38425,-0.67978 0,0 0.27369,1.91568 1.61416,2.36249 1.34045,0.4468 2.60774,-0.88668 2.60774,-0.88668 l -0.19082,11.18406 -11.70888,0 0,6.85123 12.6025,0 c 0,0 -0.58603,1.88955 0.0891,2.5464 0.53593,0.52146 2.13053,-0.13426 2.13053,-0.13426 0,0 -0.62634,1.46354 0.10397,2.14529 0.67006,0.62576 2.23442,-0.31255 2.23442,-0.31255 0,0 -0.462,1.75759 0.52112,2.21929 1.0278,0.55094 2.12988,-0.81944 2.12988,-0.81944 0,0 -0.31337,2.1448 1.02713,2.5916 1.34045,0.44681 2.42807,-1.93654 2.42807,-1.93654 0,0 0.59544,2.51744 1.78695,2.51744 1.19152,0 1.86224,-2.54707 1.86224,-2.54707 0,0 1.10129,2.29002 2.29427,1.84715 1.32565,-0.49216 1.17607,-2.35322 1.17607,-2.35322 0,0 1.53443,1.59402 2.33863,1.10219 0.76237,-0.46629 0.56552,-2.54707 0.56552,-2.54707 0,0 1.53232,1.02574 2.35378,0.55061 0.81608,-0.47202 0.2821,-2.51776 0.2821,-2.51776 0,0 1.62387,0.52146 2.21963,-0.22332 0.59576,-0.74461 0.3722,-2.1289 0.3722,-2.1289 l 11.91518,0 0,-6.82864 -11.31944,0 -0.0581,-10.32031 c 0,0 1.39413,-0.22702 2.31042,-0.9981 0.9209,-0.65427 1.32229,-2.61917 1.32229,-2.61917 0,0 1.44155,1.07492 2.50139,0.45424 1.11007,-0.64999 1.00917,-2.47575 1.00917,-2.47575 0,0 2.38928,1.16317 3.17631,0.32293 0.79035,-0.84367 0.6156,-2.85576 0.56821,-2.87606 0,0 2.18666,1.30001 3.14779,0.29801 1.2319,-0.86676 1.00687,-2.98425 1.00687,-2.98425 0,0 2.00835,0.98475 2.80838,-0.11647 0.96337,-0.69501 0.69089,-2.56158 0.69089,-2.56158 0,0 1.66783,0.51868 2.45288,-0.47431 0.74845,-0.94666 -0.13122,-3.16022 -0.13122,-3.16022 0,0 2.07252,-0.19054 2.49589,-1.32466 0.45804,-1.22728 -1.11163,-2.54072 -1.11163,-2.54072 0,0 2.16175,-0.0694 2.4726,-1.48806 0.28873,-1.31815 -1.41215,-2.21982 -1.41215,-2.21982 0,0 2.206,-0.24055 2.36811,-1.75533 0.15112,-1.4118 -1.50713,-2.38544 -1.50713,-2.38544 0,0 2.01167,-0.594976 2.16897,-2.011361 0.17116,-1.54098 -1.50268,-2.26579 -1.50268,-2.26579 0,0 1.44696,-0.57202 1.78158,-1.901795 0.30256,-1.202396 -1.53692,-2.44363 -1.53692,-2.44363 0,0 1.74376,-1.381836 1.74376,-2.909201 0,-1.527365 -1.74376,-2.437238 -1.74376,-2.437238 z"
     id="path3050-9-5"
     style="fill:#f1f1f1;fill-opacity:1;stroke:none" />
</svg>
