<?xml version="1.0" encoding="utf-8"?>
<!-- Generator: Adobe Illustrator 15.0.0, SVG Export Plug-In . SVG Version: 6.00 Build 0)  -->
<!DOCTYPE svg PUBLIC "-//W3C//DTD SVG 1.1//EN" "http://www.w3.org/Graphics/SVG/1.1/DTD/svg11.dtd">
<svg version="1.1"
	 id="svg2" xmlns:svg="http://www.w3.org/2000/svg" xmlns:rdf="http://www.w3.org/1999/02/22-rdf-syntax-ns#" xmlns:cc="http://creativecommons.org/ns#" xmlns:dc="http://purl.org/dc/elements/1.1/"
	 xmlns="http://www.w3.org/2000/svg" xmlns:xlink="http://www.w3.org/1999/xlink" x="0px" y="0px" width="190px" height="601px"
	 viewBox="0 -256 190 601" enable-background="new 0 -256 190 601" xml:space="preserve">
<path id="path3050" fill="#040464" d="M189.609,0.047H0.391v297.344l94.594,47.562l94.594-47.562L189.609,0.047z"/>
<path id="path3227" fill="#999D00" d="M94.984,129.766c-60.799-0.173-89,49.969-89,49.969v9.781v18.188l89,44.656l89-44.656v-18.188
	v-9.781C183.984,179.734,155.783,129.593,94.984,129.766z M94.984,147.922c40.805,0,67.602,28.314,80.344,45.969l-80.344,40.594
	l-80.344-40.594C27.374,176.236,54.18,147.922,94.984,147.922z"/>
<g id="g4366" transform="translate(-289.42676,-314.35751)">
	
		<linearGradient id="path4338_1_" gradientUnits="userSpaceOnUse" x1="630.5635" y1="127.4323" x2="626.4775" y2="119.5103" gradientTransform="matrix(1 0 0 -1 -289.4268 660.3577)">
		<stop  offset="0" style="stop-color:#F9F900"/>
		<stop  offset="1" style="stop-color:#999D00;stop-opacity:0"/>
	</linearGradient>
	<path id="path4338" fill="url(#path4338_1_)" d="M295.421,503.865v18.194l88.99,44.661v-17.865L295.421,503.865z"/>
	
		<linearGradient id="path4362_1_" gradientUnits="userSpaceOnUse" x1="29.5654" y1="127.4332" x2="25.4794" y2="119.5112" gradientTransform="matrix(-1 0 0 -1 457.249 660.3577)">
		<stop  offset="0" style="stop-color:#F9F900"/>
		<stop  offset="1" style="stop-color:#999D00;stop-opacity:0"/>
	</linearGradient>
	<path id="path4362" fill="url(#path4362_1_)" d="M473.401,503.865v18.194l-88.99,44.661v-17.865L473.401,503.865z"/>
</g>
<path id="path3163" fill="#999D00" d="M5.518,228.67v18.188l89,44.656l89-44.656V228.67l-89,44.969L5.518,228.67z"/>
<g id="g3165" transform="translate(-289.89285,-275.20497)">
	
		<linearGradient id="path3167_1_" gradientUnits="userSpaceOnUse" x1="631.0305" y1="88.2792" x2="626.9445" y2="80.3572" gradientTransform="matrix(1 0 0 -1 -289.8931 621.2048)">
		<stop  offset="0" style="stop-color:#F9F900"/>
		<stop  offset="1" style="stop-color:#999D00;stop-opacity:0"/>
	</linearGradient>
	<path id="path3167" fill="url(#path3167_1_)" d="M295.421,503.865v18.195l88.99,44.66v-17.864L295.421,503.865z"/>
	
		<linearGradient id="path3169_1_" gradientUnits="userSpaceOnUse" x1="30.0315" y1="88.2806" x2="25.9453" y2="80.3582" gradientTransform="matrix(-1 0 0 -1 457.7154 621.2048)">
		<stop  offset="0" style="stop-color:#F9F900"/>
		<stop  offset="1" style="stop-color:#999D00;stop-opacity:0"/>
	</linearGradient>
	<path id="path3169" fill="url(#path3169_1_)" d="M473.401,503.865v18.195l-88.99,44.66v-17.864L473.401,503.865z"/>
</g>
<path id="path3215" fill="#999D00" d="M5.518,268.467v18.188l89,44.656l89-44.656v-18.188l-89,44.969L5.518,268.467z"/>
<g id="g4006" transform="translate(-0.015625,46.265625)">
	
		<linearGradient id="path3219_1_" gradientUnits="userSpaceOnUse" x1="341.1523" y1="-233.1919" x2="337.0666" y2="-241.1134" gradientTransform="matrix(1 0 0 -1 -289.8931 18.0605)">
		<stop  offset="0" style="stop-color:#F9F900"/>
		<stop  offset="1" style="stop-color:#999D00;stop-opacity:0"/>
	</linearGradient>
	<path id="path3219" fill="url(#path3219_1_)" d="M5.544,222.19v18.195l88.99,44.66v-17.864L5.544,222.19z"/>
	
		<linearGradient id="path3221_1_" gradientUnits="userSpaceOnUse" x1="-259.8467" y1="-233.1909" x2="-263.9324" y2="-241.1125" gradientTransform="matrix(-1 0 0 -1 -122.0391 18.0605)">
		<stop  offset="0" style="stop-color:#F9F900"/>
		<stop  offset="1" style="stop-color:#999D00;stop-opacity:0"/>
	</linearGradient>
	<path id="path3221" fill="url(#path3221_1_)" d="M183.523,222.19v18.195l-88.99,44.66v-17.864L183.523,222.19z"/>
</g>
<path id="path8132" fill="#999D00" d="M51.776,9.805l-4.833,14.793l12.454,9.333l-15.562-0.025l-5.028,14.729l-4.785-14.809
	l-15.561-0.23l12.605-9.127L26.476,9.597l12.576,9.168L51.776,9.805z"/>
<path id="path3087" fill="#999D00" d="M163.92,9.805l-4.833,14.793l12.454,9.333l-15.563-0.025l-5.028,14.729l-4.785-14.809
	l-15.561-0.23l12.605-9.127l-4.59-14.871l12.576,9.168L163.92,9.805z"/>
<path id="path2855" fill="#999D00" d="M95,223.055c0,0,27.319-16.716,27.319-42.814l0.001-17.192
	c-8.322,5.904-18.932,5.255-27.32-0.001c-8.388,5.257-18.998,5.906-27.32,0.001l0.001,17.192C67.681,206.339,95,223.055,95,223.055
	L95,223.055z"/>
<path id="path3050-9-5" fill="#F1F1F1" d="M134.244,85.066c0,0,4.477-2.808,4.39-4.088c0.036-0.906-0.763-1.376-0.763-1.376
	s5.211-3.607,5.23-4.889c0.041-1.027-0.666-1.413-0.666-1.413c3.088-2.157,5.77-4.489,6.645-8.335c0,0-7.614,0.148-23.178,9.973
	c-21.453,13.543-15.489,18.618-15.489,18.618s5.063,5.063,1.937,9.085c-3.128,4.021-6.852,4.021-6.852,4.021
	s-0.059-4.264-1.607-5.109s1.725-12.698-1.967-17.083c-2.266-2.692-3.574-3.575-10.128-2.979s-9.979,3.575-9.979,3.575
	s-1.49,1.936-0.894,3.575c0.596,1.638,2.085-0.149,2.085-0.149s1.787,1.042,4.319,1.489c0,0,6.281,1.712-1.044,7.488
	c-7.324,5.775-5.658,8.151-5.658,8.151s-7.447-4.766-2.532-12.064c4.915-7.298-25.022-24.128-25.022-24.128
	s-5.809-3.128-8.489-3.575c-2.681-0.447-5.809-1.191-5.809-1.191l0,0c0,0,2.085,5.213,4.17,7s3.277,2.383,3.277,2.383
	s-0.737,0.77-0.617,1.501c-0.083,0.901,5.425,4.377,5.425,4.377s-1.044,0.547-0.944,1.521c0.05,1.325,3.582,3.324,3.582,3.324
	S51.828,85.88,51.87,87.4c0.048,1.73,1.797,3.049,1.797,3.049s-2.132,1.568-1.709,3.017c0.341,1.571,2.156,1.727,2.156,1.727
	s-2.123,1.183-1.657,2.829c0.492,1.495,2.401,1.192,2.401,1.192s-2.158,1.743-1.405,3.319c0.737,1.542,3.044,0.851,3.044,0.851
	s-2.209,2.321-1.361,3.681c0.723,1.16,2.404,0.639,2.404,0.639s-1.365,1.562-0.425,2.851c0.891,1.221,2.841,1.42,2.841,1.42
	s-1.221,2.013-0.179,2.906c1.042,0.894,2.83,0.291,2.83,0.291s-0.78,2.408,0.412,3.45c1.191,1.043,2.996-0.06,2.996-0.06
	s-0.379,2.167,0.812,3.061c1.069,0.853,3.144-0.562,3.144-0.562s0.247,2.499,1.15,3.098c0.757,0.502,2.783-0.538,2.783-0.538
	s0.158,1.891,1.498,2.635c1.34,0.51,2.384-0.68,2.384-0.68s0.274,1.916,1.614,2.362s2.607-0.886,2.607-0.886l-0.19,11.184H70.108
	v6.852H82.71c0,0-0.586,1.89,0.089,2.546c0.536,0.521,2.131-0.134,2.131-0.134s-0.626,1.463,0.104,2.145
	c0.67,0.626,2.234-0.312,2.234-0.312s-0.462,1.758,0.521,2.219c1.028,0.551,2.13-0.819,2.13-0.819s-0.313,2.145,1.027,2.592
	c1.341,0.447,2.428-1.937,2.428-1.937s0.596,2.518,1.787,2.518c1.192,0,1.862-2.547,1.862-2.547s1.102,2.29,2.295,1.847
	c1.325-0.492,1.176-2.353,1.176-2.353s1.534,1.594,2.338,1.102c0.764-0.466,0.566-2.547,0.566-2.547s1.532,1.025,2.354,0.55
	c0.816-0.472,0.282-2.518,0.282-2.518s1.624,0.521,2.22-0.224c0.596-0.745,0.372-2.129,0.372-2.129h11.915v-6.829h-11.319
	l-0.058-10.32c0,0,1.394-0.227,2.311-0.998c0.92-0.654,1.322-2.619,1.322-2.619s1.441,1.075,2.501,0.454
	c1.11-0.65,1.009-2.476,1.009-2.476s2.39,1.163,3.177,0.323c0.79-0.844,0.615-2.856,0.567-2.876c0,0,2.188,1.3,3.148,0.298
	c1.232-0.867,1.007-2.984,1.007-2.984s2.009,0.985,2.809-0.117c0.964-0.695,0.69-2.562,0.69-2.562s1.668,0.519,2.453-0.474
	c0.748-0.947-0.131-3.16-0.131-3.16s2.072-0.19,2.496-1.325c0.457-1.228-1.112-2.541-1.112-2.541s2.161-0.07,2.473-1.488
	c0.288-1.318-1.412-2.22-1.412-2.22s2.206-0.241,2.368-1.755c0.15-1.412-1.508-2.385-1.508-2.385s2.012-0.595,2.17-2.012
	c0.171-1.541-1.503-2.266-1.503-2.266s1.446-0.572,1.781-1.902c0.303-1.203-1.536-2.444-1.536-2.444s1.743-1.382,1.743-2.909
	S134.244,85.066,134.244,85.066L134.244,85.066z"/>
<g id="fDYzyY.tif">
	
		<image overflow="visible" width="430" height="579" id="Layer_0" xlink:href="DFAE50E2.png"  transform="matrix(0.415 0 0 0.415 5.7666 -251)">
	</image>
</g>
</svg>
