<?xml version="1.0" encoding="utf-8"?>
<!-- Generator: Adobe Illustrator 15.0.0, SVG Export Plug-In . SVG Version: 6.00 Build 0)  -->
<!DOCTYPE svg PUBLIC "-//W3C//DTD SVG 1.1//EN" "http://www.w3.org/Graphics/SVG/1.1/DTD/svg11.dtd">
<svg version="1.1"
	 id="svg2" xmlns:svg="http://www.w3.org/2000/svg" xmlns:rdf="http://www.w3.org/1999/02/22-rdf-syntax-ns#" xmlns:cc="http://creativecommons.org/ns#" xmlns:dc="http://purl.org/dc/elements/1.1/"
	 xmlns="http://www.w3.org/2000/svg" xmlns:xlink="http://www.w3.org/1999/xlink" x="0px" y="0px" width="190px" height="627px"
	 viewBox="0 0 190 627" enable-background="new 0 0 190 627" xml:space="preserve">
<path id="path3050" fill="#040464" d="M189.609,277.386H0.391V574.73l94.594,47.562l94.594-47.562L189.609,277.386z"/>
<path id="path3227" fill="#999D00" d="M94.984,407.105c-60.799-0.174-89,49.969-89,49.969v9.781v18.188l89,44.656l89-44.656v-18.188
	v-9.781C183.984,457.072,155.783,406.932,94.984,407.105z M94.984,425.261c40.805,0,67.602,28.313,80.344,45.97l-80.344,40.594
	L14.64,471.23C27.374,453.574,54.18,425.261,94.984,425.261z"/>
<g id="g4366" transform="translate(-289.42676,-314.35751)">
	
		<linearGradient id="path4338_1_" gradientUnits="userSpaceOnUse" x1="919.9902" y1="1076.2638" x2="915.9042" y2="1084.1858" gradientTransform="matrix(1 0 0 1 -578.8535 -266)">
		<stop  offset="0" style="stop-color:#F9F900"/>
		<stop  offset="1" style="stop-color:#999D00;stop-opacity:0"/>
	</linearGradient>
	<path id="path4338" fill="url(#path4338_1_)" d="M295.421,781.203v18.194l88.99,44.661v-17.865L295.421,781.203z"/>
	
		<linearGradient id="path4362_1_" gradientUnits="userSpaceOnUse" x1="-282.0083" y1="1076.2618" x2="-286.0943" y2="1084.1838" gradientTransform="matrix(-1 0 0 1 145.6758 -266)">
		<stop  offset="0" style="stop-color:#F9F900"/>
		<stop  offset="1" style="stop-color:#999D00;stop-opacity:0"/>
	</linearGradient>
	<path id="path4362" fill="url(#path4362_1_)" d="M473.401,781.203v18.194l-88.99,44.661v-17.865L473.401,781.203z"/>
</g>
<path id="path3163" fill="#999D00" d="M5.518,506.009v18.188l89,44.656l89-44.656v-18.188l-89,44.97L5.518,506.009z"/>
<g id="g3165" transform="translate(-289.89285,-275.20497)">
	
		<linearGradient id="path3167_1_" gradientUnits="userSpaceOnUse" x1="920.9231" y1="1076.2645" x2="916.8374" y2="1084.1859" gradientTransform="matrix(1 0 0 1 -579.7861 -266)">
		<stop  offset="0" style="stop-color:#F9F900"/>
		<stop  offset="1" style="stop-color:#999D00;stop-opacity:0"/>
	</linearGradient>
	<path id="path3167" fill="url(#path3167_1_)" d="M295.421,781.204v18.194l88.99,44.66v-17.863L295.421,781.204z"/>
	
		<linearGradient id="path3169_1_" gradientUnits="userSpaceOnUse" x1="-281.0759" y1="1076.2635" x2="-285.1621" y2="1084.1859" gradientTransform="matrix(-1 0 0 1 146.608 -266)">
		<stop  offset="0" style="stop-color:#F9F900"/>
		<stop  offset="1" style="stop-color:#999D00;stop-opacity:0"/>
	</linearGradient>
	<path id="path3169" fill="url(#path3169_1_)" d="M473.401,781.204v18.194l-88.99,44.66v-17.863L473.401,781.204z"/>
</g>
<path id="path3215" fill="#999D00" d="M5.518,545.806v18.188l89,44.655l89-44.655v-18.188l-89,44.969L5.518,545.806z"/>
<g id="g4006" transform="translate(-0.015625,46.265625)">
	
		<linearGradient id="path3219_1_" gradientUnits="userSpaceOnUse" x1="341.167" y1="1076.2646" x2="337.0814" y2="1084.1859" gradientTransform="matrix(1 0 0 1 -289.9087 -547.6738)">
		<stop  offset="0" style="stop-color:#F9F900"/>
		<stop  offset="1" style="stop-color:#999D00;stop-opacity:0"/>
	</linearGradient>
	<path id="path3219" fill="url(#path3219_1_)" d="M5.544,499.529v18.194l88.99,44.66V544.52L5.544,499.529z"/>
	
		<linearGradient id="path3221_1_" gradientUnits="userSpaceOnUse" x1="-860.832" y1="1076.2637" x2="-864.9177" y2="1084.1853" gradientTransform="matrix(-1 0 0 1 -723.0234 -547.6738)">
		<stop  offset="0" style="stop-color:#F9F900"/>
		<stop  offset="1" style="stop-color:#999D00;stop-opacity:0"/>
	</linearGradient>
	<path id="path3221" fill="url(#path3221_1_)" d="M183.523,499.529v18.194l-88.99,44.66V544.52L183.523,499.529z"/>
</g>
<path id="path8132" fill="#F1F1F1" d="M51.776,287.144l-4.833,14.793l12.454,9.333l-15.562-0.025l-5.028,14.729l-4.785-14.809
	l-15.561-0.23l12.605-9.127l-4.59-14.872l12.576,9.168L51.776,287.144z"/>
<path id="path3087" fill="#F1F1F1" d="M163.92,287.144l-4.833,14.793l12.454,9.333l-15.562-0.025l-5.028,14.729l-4.785-14.809
	l-15.562-0.23l12.605-9.127l-4.59-14.871l12.576,9.168L163.92,287.144z"/>
<path id="path2855" fill="#F1F1F1" d="M95,500.395c0,0,27.318-16.717,27.318-42.814l0.002-17.192
	c-8.322,5.904-18.932,5.255-27.32-0.001c-8.388,5.258-18.998,5.906-27.32,0.001l0.001,17.192C67.681,483.678,95,500.395,95,500.395
	L95,500.395z"/>
<path id="path3050-9-5" fill="#F1F1F1" d="M134.244,362.404c0,0,4.477-2.808,4.39-4.088c0.036-0.905-0.763-1.375-0.763-1.375
	s5.211-3.607,5.23-4.89c0.041-1.026-0.666-1.413-0.666-1.413c3.088-2.156,5.77-4.488,6.645-8.335c0,0-7.614,0.148-23.178,9.974
	c-21.453,13.543-15.489,18.617-15.489,18.617s5.063,5.063,1.937,9.086c-3.127,4.021-6.852,4.021-6.852,4.021
	s-0.059-4.265-1.607-5.108c-1.548-0.846,1.726-12.699-1.967-17.084c-2.266-2.691-3.574-3.574-10.128-2.979s-9.979,3.574-9.979,3.574
	s-1.49,1.937-0.894,3.576c0.596,1.637,2.085-0.149,2.085-0.149s1.787,1.042,4.319,1.489c0,0,6.281,1.711-1.044,7.487
	c-7.324,5.775-5.658,8.151-5.658,8.151s-7.447-4.766-2.532-12.064c4.915-7.298-25.022-24.128-25.022-24.128
	s-5.809-3.128-8.489-3.575c-2.681-0.446-5.809-1.19-5.809-1.19l0,0c0,0,2.085,5.213,4.17,7s3.277,2.383,3.277,2.383
	s-0.737,0.771-0.617,1.501c-0.083,0.901,5.425,4.377,5.425,4.377s-1.044,0.547-0.944,1.521c0.05,1.324,3.582,3.324,3.582,3.324
	s-1.838,1.111-1.796,2.631c0.048,1.73,1.797,3.05,1.797,3.05s-2.132,1.567-1.709,3.017c0.341,1.571,2.156,1.727,2.156,1.727
	s-2.123,1.184-1.657,2.83c0.492,1.494,2.401,1.191,2.401,1.191s-2.158,1.743-1.405,3.319c0.737,1.542,3.044,0.851,3.044,0.851
	s-2.209,2.321-1.361,3.682c0.723,1.16,2.404,0.639,2.404,0.639s-1.365,1.562-0.425,2.852c0.891,1.221,2.841,1.42,2.841,1.42
	s-1.221,2.012-0.179,2.905s2.83,0.291,2.83,0.291s-0.78,2.408,0.412,3.45c1.191,1.043,2.996-0.061,2.996-0.061
	s-0.379,2.168,0.812,3.062c1.069,0.853,3.144-0.562,3.144-0.562s0.247,2.498,1.15,3.098c0.757,0.502,2.783-0.538,2.783-0.538
	s0.158,1.892,1.498,2.635c1.34,0.511,2.384-0.68,2.384-0.68s0.274,1.916,1.614,2.362c1.34,0.445,2.607-0.887,2.607-0.887
	l-0.19,11.184H70.108v6.853H82.71c0,0-0.586,1.89,0.089,2.546c0.536,0.521,2.131-0.134,2.131-0.134s-0.626,1.463,0.104,2.146
	c0.67,0.625,2.234-0.312,2.234-0.312s-0.462,1.758,0.521,2.219c1.028,0.551,2.13-0.818,2.13-0.818s-0.313,2.145,1.027,2.592
	c1.341,0.447,2.428-1.938,2.428-1.938s0.596,2.519,1.787,2.519c1.192,0,1.862-2.548,1.862-2.548s1.102,2.291,2.295,1.848
	c1.324-0.492,1.176-2.354,1.176-2.354s1.533,1.595,2.338,1.103c0.764-0.466,0.566-2.547,0.566-2.547s1.531,1.024,2.354,0.55
	c0.816-0.473,0.282-2.518,0.282-2.518s1.624,0.521,2.22-0.224c0.596-0.745,0.372-2.129,0.372-2.129h11.915v-6.829h-11.318
	l-0.059-10.32c0,0,1.395-0.227,2.311-0.998c0.92-0.653,1.322-2.618,1.322-2.618s1.441,1.075,2.501,0.454
	c1.11-0.65,1.009-2.477,1.009-2.477s2.391,1.163,3.178,0.323c0.789-0.845,0.615-2.856,0.566-2.876c0,0,2.188,1.3,3.148,0.298
	c1.232-0.866,1.007-2.983,1.007-2.983s2.009,0.984,2.81-0.117c0.963-0.695,0.689-2.562,0.689-2.562s1.668,0.52,2.453-0.474
	c0.748-0.947-0.131-3.16-0.131-3.16s2.072-0.19,2.496-1.325c0.457-1.229-1.112-2.541-1.112-2.541s2.161-0.07,2.473-1.488
	c0.288-1.317-1.411-2.22-1.411-2.22s2.205-0.241,2.367-1.755c0.15-1.412-1.508-2.385-1.508-2.385s2.012-0.596,2.17-2.012
	c0.171-1.541-1.503-2.267-1.503-2.267s1.446-0.571,1.78-1.901c0.304-1.203-1.535-2.444-1.535-2.444s1.742-1.382,1.742-2.909
	S134.244,362.404,134.244,362.404L134.244,362.404z"/>
<g id="hPUtCZ.tif">
	
		<image overflow="visible" enable-background="new    " width="432" height="577" id="Layer_0" xlink:href="10A86112.png"  transform="matrix(0.4406 0 0 0.4406 -0.1035 4.708)">
	</image>
</g>
</svg>
