<?xml version="1.0" encoding="utf-8"?>
<!-- Generator: Adobe Illustrator 15.0.0, SVG Export Plug-In . SVG Version: 6.00 Build 0)  -->
<!DOCTYPE svg PUBLIC "-//W3C//DTD SVG 1.1//EN" "http://www.w3.org/Graphics/SVG/1.1/DTD/svg11.dtd">
<svg version="1.1"
	 id="svg2" xmlns:svg="http://www.w3.org/2000/svg" xmlns:rdf="http://www.w3.org/1999/02/22-rdf-syntax-ns#" xmlns:cc="http://creativecommons.org/ns#" xmlns:dc="http://purl.org/dc/elements/1.1/"
	 xmlns="http://www.w3.org/2000/svg" xmlns:xlink="http://www.w3.org/1999/xlink" x="0px" y="0px" width="190px" height="563.5px"
	 viewBox="0 0 190 563.5" enable-background="new 0 0 190 563.5" xml:space="preserve">
<path id="path3050" fill="#040464" d="M0.391,254.912v249.79l94.594,47.57l94.625-47.57v-249.79H94.984H0.391z"/>
<path id="path3227" fill="#999D00" d="M95,337.092c-60.799-0.173-89,49.969-89,49.969v9.781v18.188l89,44.656l89-44.656v-18.188
	v-9.781C184,387.061,155.799,336.919,95,337.092z M95,355.248c40.805,0,67.602,28.314,80.344,45.969L95,441.811l-80.344-40.594
	C27.39,383.562,54.195,355.248,95,355.248z"/>
<g id="g4272" transform="matrix(0.1118772,0,0,0.1118772,29.075317,65.981492)">
	<path id="path3495" fill="#F1F1F1" d="M567.635,2737.303l-11.217,9.619l-3.204-1.606L540.4,2758.13c0,0-7.21-3.998-32.843,16.829
		c-25.632,20.818-69.687,63.276-69.687,63.276s-33.641,35.239-28.836,44.858l-8.009,7.21l-2.405,8.004l-8.009,9.619l15.219,15.214
		l12.015-7.21l4.805,0.803l9.611-8.808c0,0,16.022,3.204,38.451-16.821c22.429-20.024,25.633-24.031,25.633-24.031l73.689,75.287
		l-99.322,104.136c0,0-16.821,24.022-30.438,7.21c-13.617-16.829-9.615-37.648-9.615-37.648l12.015-5.613l2.405-60.875
		c0,0-40.851,17.632-55.271,35.247c-14.416,17.624-14.416,35.247-14.416,35.247l14.416,0.803c0,0,21.63,59.269,30.438,71.28
		c8.812,12.011,3.208,24.04,3.208,24.04s10.409-8.013,31.236,5.604s67.287,24.825,67.287,24.825v12.814
		c0,0,36.042-9.602,51.26-37.639c15.219-28.037,15.219-36.854,15.219-36.854l-60.875,8.013l-4.805,12.011
		c0,0-20.024,5.604-36.046-7.21c-16.018-12.814,0.803-24.825,0.803-24.825l102.53-110.534l105.724,112.943
		c0,0,12.823,17.624-12.011,26.44c-24.825,8.799-28.84,3.998-28.84,3.998l-6.407-12.814l-58.466-7.21c0,0,9.61,34.444,28.84,52.059
		c19.221,17.632,37.639,22.433,37.639,22.433l0.803-12.814c0,0,60.875-20.024,71.289-28.037s27.234-2.4,27.234-2.4
		s-9.61-10.414,8.004-34.444c17.633-24.031,25.637-62.481,25.637-62.481l13.617,0.803c0,0-8.807-39.245-40.851-57.672
		c-32.044-18.427-28.832-12.814-28.832-12.814l3.998,59.278l11.217,6.407c0,0,1.597,26.431-11.217,38.442
		c-12.814,12.02-20.827-0.794-20.827-0.794l-106.528-109.749l76.902-77.705c0,0,38.442,34.444,52.059,38.451
		c13.617,4.007,12.011,0.803,12.011,0.803l10.422,8.004l3.998,0.803l12.814,8.013l14.42-15.223l-8.807-13.617l0.794-3.195
		l-11.208-10.422c0,0,2.4-4.801-7.21-20.024c-9.61-15.214-48.061-49.658-48.061-49.658s-47.258-44.858-58.466-49.659
		c-11.225-4.81-16.026-3.212-16.026-3.212l-12.011-12.011l-2.409-0.803l-12.814-7.21l-15.223,13.617l8.816,12.814l-0.803,4.015
		l12.814,15.214l-3.998,2.4c0,0,13.617,18.427,25.628,32.838c12.011,14.42,21.63,24.039,21.63,24.039l-76.099,79.293l-68.085-77.696
		c0,0,34.444-40.048,40.048-48.856c5.608-8.816,2.405-12.02,2.405-12.02l12.015-15.214v-3.212l7.21-12.814L567.635,2737.303z"/>
	<path id="path3497" fill="#F1F1F1" d="M439.08,2738.105c-23.673,0-42.872,19.169-42.872,42.842
		c0,23.673,19.199,42.876,42.872,42.876c23.673,0,42.846-19.203,42.846-42.876C481.926,2757.274,462.752,2738.105,439.08,2738.105z
		 M439.08,2753.259c15.293,0,27.688,12.404,27.688,27.688c0,15.293-12.395,27.688-27.688,27.688
		c-15.289,0-27.684-12.395-27.684-27.688C411.396,2765.663,423.791,2753.259,439.08,2753.259z"/>
	<path id="path4270" fill="#F1F1F1" d="M744.268,2736.508c-23.673,0-42.876,19.168-42.876,42.841s19.204,42.876,42.876,42.876
		s42.841-19.204,42.841-42.876S767.941,2736.508,744.268,2736.508z M744.268,2751.662c15.284,0,27.688,12.404,27.688,27.688
		s-12.404,27.688-27.688,27.688c-15.293,0-27.688-12.404-27.688-27.688S728.975,2751.662,744.268,2751.662z"/>
</g>
<g id="g4366" transform="translate(-289.41113,-360.62314)">
	
		<linearGradient id="path4338_1_" gradientUnits="userSpaceOnUse" x1="919.9609" y1="1097.5157" x2="915.8748" y2="1105.4381" gradientTransform="matrix(1 0 0 1 -578.8223 -311)">
		<stop  offset="0" style="stop-color:#F9F900"/>
		<stop  offset="1" style="stop-color:#999D00;stop-opacity:0"/>
	</linearGradient>
	<path id="path4338" fill="url(#path4338_1_)" d="M295.421,757.457v18.195l88.99,44.66v-17.865L295.421,757.457z"/>
	
		<linearGradient id="path4362_1_" gradientUnits="userSpaceOnUse" x1="-282.0401" y1="1097.5157" x2="-286.1265" y2="1105.4386" gradientTransform="matrix(-1 0 0 1 145.6445 -311)">
		<stop  offset="0" style="stop-color:#F9F900"/>
		<stop  offset="1" style="stop-color:#999D00;stop-opacity:0"/>
	</linearGradient>
	<path id="path4362" fill="url(#path4362_1_)" d="M473.401,757.457v18.195l-88.99,44.66v-17.865L473.401,757.457z"/>
</g>
<path id="path3163" fill="#999D00" d="M5.534,435.996v18.188l89,44.656l89-44.656v-18.188l-89,44.969L5.534,435.996z"/>
<g id="g3165" transform="translate(-289.87722,-321.4706)">
	
		<linearGradient id="path3167_1_" gradientUnits="userSpaceOnUse" x1="920.8928" y1="1097.5155" x2="916.8062" y2="1105.4386" gradientTransform="matrix(1 0 0 1 -579.7549 -311)">
		<stop  offset="0" style="stop-color:#F9F900"/>
		<stop  offset="1" style="stop-color:#999D00;stop-opacity:0"/>
	</linearGradient>
	<path id="path3167" fill="url(#path3167_1_)" d="M295.421,757.457v18.195l88.99,44.66v-17.865L295.421,757.457z"/>
	
		<linearGradient id="path3169_1_" gradientUnits="userSpaceOnUse" x1="-281.1072" y1="1097.5175" x2="-285.193" y2="1105.4391" gradientTransform="matrix(-1 0 0 1 146.5767 -311)">
		<stop  offset="0" style="stop-color:#F9F900"/>
		<stop  offset="1" style="stop-color:#999D00;stop-opacity:0"/>
	</linearGradient>
	<path id="path3169" fill="url(#path3169_1_)" d="M473.401,757.457v18.195l-88.99,44.66v-17.865L473.401,757.457z"/>
</g>
<path id="path3215" fill="#999D00" d="M5.534,475.793v18.188l89,44.656l89-44.656v-18.188l-89,44.969L5.534,475.793z"/>
<g id="g4006">
	
		<linearGradient id="path3219_1_" gradientUnits="userSpaceOnUse" x1="341.1367" y1="1097.5166" x2="337.051" y2="1105.438" gradientTransform="matrix(1 0 0 1 -289.8774 -592.6738)">
		<stop  offset="0" style="stop-color:#F9F900"/>
		<stop  offset="1" style="stop-color:#999D00;stop-opacity:0"/>
	</linearGradient>
	<path id="path3219" fill="url(#path3219_1_)" d="M5.544,475.781v18.195l88.99,44.661v-17.864L5.544,475.781z"/>
	
		<linearGradient id="path3221_1_" gradientUnits="userSpaceOnUse" x1="-860.8618" y1="1097.5156" x2="-864.9476" y2="1105.4371" gradientTransform="matrix(-1 0 0 1 -723.0547 -592.6738)">
		<stop  offset="0" style="stop-color:#F9F900"/>
		<stop  offset="1" style="stop-color:#999D00;stop-opacity:0"/>
	</linearGradient>
	<path id="path3221" fill="url(#path3221_1_)" d="M183.523,475.781v18.195l-88.99,44.661v-17.864L183.523,475.781z"/>
</g>
<path id="path3050-9-5" fill="#F1F1F1" d="M134.26,292.393c0,0,4.479-2.807,4.391-4.088c0.035-0.906-0.764-1.376-0.764-1.376
	s5.211-3.606,5.231-4.889c0.04-1.027-0.667-1.413-0.667-1.413c3.089-2.157,5.77-4.837,6.645-8.684c0,0-7.613,0.497-23.177,10.322
	c-21.454,13.544-15.489,18.618-15.489,18.618s5.063,5.064,1.937,9.085c-3.128,4.021-6.853,4.021-6.853,4.021
	s-0.058-4.264-1.606-5.108c-1.55-0.845,1.725-12.698-1.968-17.083c-2.266-2.691-3.573-3.574-10.127-2.979
	c-6.553,0.596-9.979,3.574-9.979,3.574s-1.49,1.938-0.894,3.575s2.085-0.149,2.085-0.149s1.787,1.043,4.319,1.489
	c0,0,6.281,1.714-1.044,7.488c-7.324,5.774-5.659,8.151-5.659,8.151s-7.447-4.767-2.532-12.064s-25.022-24.128-25.022-24.128
	s-5.809-3.128-8.49-3.575c-2.681-0.447-5.809-1.191-5.809-1.191l0,0c0,0,2.085,5.213,4.17,7s3.276,2.383,3.276,2.383
	s-0.737,0.769-0.616,1.5c-0.083,0.902,5.425,4.378,5.425,4.378s-1.043,0.547-0.944,1.521c0.051,1.325,3.583,3.324,3.583,3.324
	s-1.84,1.112-1.797,2.632c0.048,1.731,1.797,3.05,1.797,3.05s-2.132,1.567-1.709,3.017c0.341,1.571,2.156,1.728,2.156,1.728
	s-2.124,1.184-1.657,2.829c0.492,1.495,2.401,1.192,2.401,1.192s-2.159,1.742-1.405,3.318c0.737,1.543,3.043,0.852,3.043,0.852
	s-2.209,2.32-1.361,3.681c0.723,1.16,2.404,0.64,2.404,0.64s-1.365,1.562-0.425,2.851c0.891,1.221,2.841,1.421,2.841,1.421
	s-1.221,2.012-0.179,2.906c1.042,0.894,2.83,0.291,2.83,0.291s-0.779,2.408,0.412,3.451c1.191,1.041,2.996-0.061,2.996-0.061
	s-0.379,2.167,0.812,3.061c1.069,0.854,3.144-0.562,3.144-0.562s0.246,2.499,1.15,3.099c0.757,0.502,2.783-0.537,2.783-0.537
	s0.158,1.89,1.498,2.635c1.34,0.511,2.384-0.68,2.384-0.68s0.273,1.916,1.614,2.362c1.34,0.447,2.607-0.887,2.607-0.887
	l-0.191,11.185H70.124v6.851h12.603c0,0-0.586,1.89,0.089,2.546c0.536,0.521,2.13-0.135,2.13-0.135s-0.626,1.464,0.104,2.146
	c0.67,0.625,2.234-0.312,2.234-0.312s-0.462,1.758,0.521,2.22c1.028,0.551,2.13-0.819,2.13-0.819s-0.313,2.146,1.027,2.592
	c1.34,0.445,2.428-1.938,2.428-1.938s0.595,2.518,1.787,2.518c1.191,0,1.861-2.547,1.861-2.547s1.103,2.29,2.295,1.848
	c1.326-0.492,1.176-2.354,1.176-2.354s1.535,1.594,2.339,1.102c0.764-0.465,0.565-2.547,0.565-2.547s1.532,1.026,2.354,0.551
	c0.815-0.473,0.282-2.519,0.282-2.519s1.623,0.521,2.22-0.223c0.596-0.744,0.373-2.129,0.373-2.129h11.914v-6.829h-11.318
	l-0.059-10.32c0,0,1.395-0.227,2.311-0.998c0.921-0.654,1.322-2.619,1.322-2.619s1.44,1.075,2.5,0.455
	c1.11-0.65,1.01-2.477,1.01-2.477s2.391,1.163,3.177,0.322c0.79-0.844,0.616-2.855,0.567-2.875c0,0,2.188,1.3,3.147,0.298
	c1.231-0.867,1.009-2.984,1.009-2.984s2.008,0.985,2.807-0.116c0.965-0.695,0.691-2.562,0.691-2.562s1.668,0.519,2.452-0.476
	c0.749-0.946-0.131-3.16-0.131-3.16s2.072-0.189,2.496-1.324c0.458-1.227-1.11-2.541-1.11-2.541s2.16-0.069,2.473-1.488
	c0.287-1.318-1.412-2.22-1.412-2.22s2.205-0.241,2.367-1.755c0.15-1.412-1.508-2.385-1.508-2.385s2.012-0.596,2.17-2.012
	c0.172-1.541-1.502-2.266-1.502-2.266s1.445-0.572,1.78-1.902c0.304-1.201-1.537-2.443-1.537-2.443s1.744-1.381,1.744-2.908
	S134.26,292.393,134.26,292.393z"/>
<g id="Ebrqf2.tif">
	
		<image overflow="visible" enable-background="new    " width="444" height="589" id="Layer_0" xlink:href="757C5C72.png"  transform="matrix(0.4203 0 0 0.4203 1.5151 1.3193)">
	</image>
</g>
</svg>
