<?xml version="1.0" encoding="utf-8"?>
<!-- Generator: Adobe Illustrator 15.0.0, SVG Export Plug-In . SVG Version: 6.00 Build 0)  -->
<!DOCTYPE svg PUBLIC "-//W3C//DTD SVG 1.1//EN" "http://www.w3.org/Graphics/SVG/1.1/DTD/svg11.dtd">
<svg version="1.1"
	 id="svg2" xmlns:svg="http://www.w3.org/2000/svg" xmlns:rdf="http://www.w3.org/1999/02/22-rdf-syntax-ns#" xmlns:cc="http://creativecommons.org/ns#" xmlns:dc="http://purl.org/dc/elements/1.1/"
	 xmlns="http://www.w3.org/2000/svg" xmlns:xlink="http://www.w3.org/1999/xlink" x="0px" y="0px" width="190px" height="612px"
	 viewBox="0 0 190 612" enable-background="new 0 0 190 612" xml:space="preserve">
<path id="path3050" fill="#040464" d="M189.609,262.74H0.391v297.344l94.594,47.562l94.594-47.562L189.609,262.74z"/>
<path id="path3227" fill="#999D00" d="M94.984,392.459c-60.799-0.173-89,49.969-89,49.969v9.781v18.188l89,44.655l89-44.655v-18.188
	v-9.781C183.984,442.428,155.783,392.286,94.984,392.459z M94.984,410.615c40.805,0,67.602,28.314,80.344,45.969l-80.344,40.594
	L14.64,456.584C27.374,438.93,54.18,410.615,94.984,410.615z"/>
<g id="g4272" transform="matrix(0.1118772,0,0,0.1118772,29.059692,112.24711)">
	<path id="path3495" fill="#F1F1F1" d="M567.635,2818.656l-11.217,9.619l-3.204-1.606l-12.814,12.814c0,0-7.21-3.998-32.843,16.83
		c-25.632,20.818-69.687,63.276-69.687,63.276s-33.641,35.239-28.836,44.858l-8.009,7.21l-2.405,8.004l-8.009,9.611l15.219,15.223
		l12.015-7.21l4.805,0.803l9.611-8.816c0,0,16.022,3.212,38.451-16.821c22.429-20.024,25.633-24.031,25.633-24.031l73.689,75.295
		l-99.322,104.136c0,0-16.821,24.022-30.438,7.21c-13.617-16.83-9.615-37.657-9.615-37.657l12.015-5.604l2.405-60.875
		c0,0-40.851,17.624-55.271,35.247c-14.416,17.615-14.416,35.247-14.416,35.247l14.416,0.794c0,0,21.63,59.278,30.438,71.289
		c8.812,12.011,3.208,24.031,3.208,24.031s10.409-8.004,31.236,5.613s67.287,24.825,67.287,24.825v12.814
		c0,0,36.042-9.61,51.26-37.639c15.219-28.037,15.219-36.853,15.219-36.853l-60.875,8.013l-4.805,12.011
		c0,0-20.024,5.604-36.046-7.21c-16.018-12.814,0.803-24.825,0.803-24.825l102.53-110.542l105.724,112.943
		c0,0,12.823,17.624-12.011,26.44c-24.825,8.799-28.84,3.998-28.84,3.998l-6.407-12.814l-58.466-7.21c0,0,9.61,34.444,28.84,52.059
		c19.221,17.632,37.639,22.433,37.639,22.433l0.803-12.814c0,0,60.875-20.024,71.289-28.037c10.414-8.013,27.234-2.4,27.234-2.4
		s-9.61-10.414,8.004-34.444c17.632-24.031,25.637-62.473,25.637-62.473l13.617,0.794c0,0-8.807-39.254-40.851-57.672
		c-32.044-18.418-28.832-12.814-28.832-12.814l3.998,59.27l11.217,6.407c0,0,1.597,26.431-11.217,38.451
		c-12.814,12.02-20.827-0.794-20.827-0.794l-106.528-109.74l76.902-77.705c0,0,38.442,34.444,52.059,38.451
		c13.617,4.007,12.011,0.803,12.011,0.803l10.422,8.004l3.998,0.803l12.814,8.013l14.42-15.223l-8.807-13.617l0.794-3.195
		l-11.208-10.422c0,0,2.4-4.801-7.21-20.024c-9.61-15.214-48.061-49.659-48.061-49.659s-47.258-44.858-58.466-49.659
		c-11.225-4.81-16.026-3.212-16.026-3.212l-12.011-12.011l-2.409-0.803l-12.814-7.21l-15.223,13.617l8.816,12.814l-0.803,4.015
		l12.814,15.215l-3.998,2.4c0,0,13.617,18.427,25.628,32.838c12.011,14.42,21.63,24.04,21.63,24.04l-76.099,79.293l-68.085-77.696
		c0,0,34.444-40.048,40.048-48.855c5.608-8.816,2.405-12.02,2.405-12.02l12.015-15.215v-3.212l7.21-12.814L567.635,2818.656z"/>
	<path id="path3497" fill="#F1F1F1" d="M439.08,2819.459c-23.673,0-42.872,19.168-42.872,42.841s19.199,42.876,42.872,42.876
		c23.673,0,42.846-19.204,42.846-42.876S462.752,2819.459,439.08,2819.459z M439.08,2834.612c15.293,0,27.688,12.404,27.688,27.688
		c0,15.293-12.395,27.688-27.688,27.688c-15.289,0-27.684-12.395-27.684-27.688C411.396,2847.016,423.791,2834.612,439.08,2834.612z
		"/>
	<path id="path4270" fill="#F1F1F1" d="M744.268,2817.862c-23.673,0-42.876,19.169-42.876,42.842
		c0,23.673,19.204,42.876,42.876,42.876c23.673,0,42.841-19.204,42.841-42.876C787.109,2837.03,767.941,2817.862,744.268,2817.862z
		 M744.268,2833.015c15.284,0,27.688,12.404,27.688,27.688c0,15.284-12.404,27.688-27.688,27.688
		c-15.293,0-27.688-12.404-27.688-27.688C716.58,2845.419,728.975,2833.015,744.268,2833.015z"/>
</g>
<g id="g4366" transform="translate(-289.42676,-314.35751)">
	
		<linearGradient id="path4338_1_" gradientUnits="userSpaceOnUse" x1="919.9912" y1="1061.6193" x2="915.9055" y2="1069.5408" gradientTransform="matrix(1 0 0 1 -578.8535 -266)">
		<stop  offset="0" style="stop-color:#F9F900"/>
		<stop  offset="1" style="stop-color:#999D00;stop-opacity:0"/>
	</linearGradient>
	<path id="path4338" fill="url(#path4338_1_)" d="M295.421,766.559v18.193l88.99,44.661v-17.864L295.421,766.559z"/>
	
		<linearGradient id="path4362_1_" gradientUnits="userSpaceOnUse" x1="-282.0088" y1="1061.6173" x2="-286.0948" y2="1069.5393" gradientTransform="matrix(-1 0 0 1 145.6757 -266)">
		<stop  offset="0" style="stop-color:#F9F900"/>
		<stop  offset="1" style="stop-color:#999D00;stop-opacity:0"/>
	</linearGradient>
	<path id="path4362" fill="url(#path4362_1_)" d="M473.401,766.559v18.193l-88.99,44.661v-17.864L473.401,766.559z"/>
</g>
<path id="path3163" fill="#999D00" d="M5.518,491.363v18.188l89,44.656l89-44.656v-18.188l-89,44.969L5.518,491.363z"/>
<g id="g3165" transform="translate(-289.89285,-275.20497)">
	
		<linearGradient id="path3167_1_" gradientUnits="userSpaceOnUse" x1="920.9241" y1="1061.619" x2="916.8379" y2="1069.5414" gradientTransform="matrix(1 0 0 1 -579.7861 -266)">
		<stop  offset="0" style="stop-color:#F9F900"/>
		<stop  offset="1" style="stop-color:#999D00;stop-opacity:0"/>
	</linearGradient>
	<path id="path3167" fill="url(#path3167_1_)" d="M295.421,766.558v18.195l88.99,44.66v-17.865L295.421,766.558z"/>
	
		<linearGradient id="path3169_1_" gradientUnits="userSpaceOnUse" x1="-281.0759" y1="1061.6171" x2="-285.1626" y2="1069.5404" gradientTransform="matrix(-1 0 0 1 146.6079 -266)">
		<stop  offset="0" style="stop-color:#F9F900"/>
		<stop  offset="1" style="stop-color:#999D00;stop-opacity:0"/>
	</linearGradient>
	<path id="path3169" fill="url(#path3169_1_)" d="M473.401,766.558v18.195l-88.99,44.66v-17.865L473.401,766.558z"/>
</g>
<path id="path3215" fill="#999D00" d="M5.518,531.16v18.188l89,44.656l89-44.656V531.16l-89,44.969L5.518,531.16z"/>
<g id="g4006" transform="translate(-0.015625,46.265625)">
	
		<linearGradient id="path3219_1_" gradientUnits="userSpaceOnUse" x1="341.167" y1="1061.6191" x2="337.0814" y2="1069.5404" gradientTransform="matrix(1 0 0 1 -289.9087 -547.6738)">
		<stop  offset="0" style="stop-color:#F9F900"/>
		<stop  offset="1" style="stop-color:#999D00;stop-opacity:0"/>
	</linearGradient>
	<path id="path3219" fill="url(#path3219_1_)" d="M5.544,484.883v18.195l88.99,44.66v-17.864L5.544,484.883z"/>
	
		<linearGradient id="path3221_1_" gradientUnits="userSpaceOnUse" x1="-860.8311" y1="1061.6191" x2="-864.9171" y2="1069.5411" gradientTransform="matrix(-1 0 0 1 -723.0235 -547.6738)">
		<stop  offset="0" style="stop-color:#F9F900"/>
		<stop  offset="1" style="stop-color:#999D00;stop-opacity:0"/>
	</linearGradient>
	<path id="path3221" fill="url(#path3221_1_)" d="M183.523,484.883v18.195l-88.99,44.66v-17.864L183.523,484.883z"/>
</g>
<path id="path8132" fill="#F1F1F1" d="M51.776,272.499l-4.833,14.793l12.454,9.333L43.835,296.6l-5.028,14.729L34.02,296.52
	l-15.561-0.23l12.605-9.127l-4.588-14.872l12.576,9.168L51.776,272.499z"/>
<path id="path3087" fill="#F1F1F1" d="M163.92,272.499l-4.833,14.793l12.454,9.333l-15.562-0.025l-5.028,14.729l-4.785-14.809
	l-15.562-0.23l12.605-9.127l-4.59-14.871l12.576,9.168L163.92,272.499z"/>
<path id="path3050-9-5" fill="#F1F1F1" d="M134.244,347.76c0,0,4.477-2.809,4.39-4.088c0.036-0.906-0.763-1.377-0.763-1.377
	s5.211-3.606,5.23-4.889c0.041-1.027-0.666-1.413-0.666-1.413c3.088-2.157,5.77-4.838,6.645-8.684c0,0-7.614,0.497-23.178,10.321
	c-21.453,13.543-15.489,18.619-15.489,18.619s5.063,5.062,1.937,9.084s-6.852,4.021-6.852,4.021s-0.059-4.264-1.607-5.109
	c-1.548-0.845,1.726-12.697-1.967-17.083c-2.266-2.692-3.574-3.575-10.128-2.979c-6.554,0.596-9.979,3.575-9.979,3.575
	s-1.49,1.936-0.894,3.574c0.596,1.639,2.085-0.148,2.085-0.148s1.787,1.042,4.319,1.488c0,0,6.281,1.713-1.044,7.488
	c-7.324,5.775-5.658,8.151-5.658,8.151s-7.447-4.767-2.532-12.063c4.915-7.299-25.022-24.129-25.022-24.129
	s-5.809-3.128-8.489-3.574c-2.681-0.447-5.809-1.191-5.809-1.191l0,0c0,0,2.085,5.213,4.17,7s3.277,2.383,3.277,2.383
	s-0.737,0.77-0.617,1.501c-0.083,0.901,5.425,4.377,5.425,4.377s-1.044,0.547-0.944,1.521c0.05,1.326,3.582,3.324,3.582,3.324
	s-1.838,1.112-1.796,2.633c0.048,1.729,1.797,3.049,1.797,3.049s-2.132,1.568-1.709,3.017c0.341,1.571,2.156,1.728,2.156,1.728
	s-2.123,1.183-1.657,2.828c0.492,1.496,2.401,1.192,2.401,1.192s-2.158,1.743-1.405,3.319c0.737,1.542,3.044,0.851,3.044,0.851
	s-2.209,2.321-1.361,3.681c0.723,1.16,2.404,0.64,2.404,0.64s-1.365,1.562-0.425,2.851c0.891,1.221,2.841,1.42,2.841,1.42
	s-1.221,2.014-0.179,2.906c1.042,0.895,2.83,0.291,2.83,0.291s-0.78,2.408,0.412,3.45c1.191,1.043,2.996-0.06,2.996-0.06
	s-0.379,2.166,0.812,3.061c1.069,0.854,3.144-0.562,3.144-0.562s0.247,2.5,1.15,3.099c0.757,0.502,2.783-0.538,2.783-0.538
	s0.158,1.891,1.498,2.635c1.34,0.51,2.384-0.68,2.384-0.68s0.274,1.916,1.614,2.361c1.34,0.446,2.607-0.886,2.607-0.886
	l-0.19,11.185H70.108v6.852H82.71c0,0-0.586,1.891,0.089,2.546c0.536,0.521,2.131-0.134,2.131-0.134s-0.626,1.463,0.104,2.145
	c0.67,0.627,2.234-0.312,2.234-0.312s-0.462,1.758,0.521,2.219c1.028,0.552,2.13-0.819,2.13-0.819s-0.313,2.146,1.027,2.593
	c1.341,0.446,2.428-1.937,2.428-1.937s0.596,2.518,1.787,2.518c1.192,0,1.862-2.547,1.862-2.547s1.102,2.289,2.295,1.847
	c1.324-0.492,1.176-2.353,1.176-2.353s1.533,1.594,2.338,1.102c0.764-0.466,0.566-2.547,0.566-2.547s1.531,1.025,2.354,0.55
	c0.816-0.472,0.282-2.519,0.282-2.519s1.624,0.521,2.22-0.223s0.372-2.129,0.372-2.129h11.915v-6.829h-11.318l-0.059-10.319
	c0,0,1.395-0.228,2.311-0.998c0.92-0.654,1.322-2.619,1.322-2.619s1.441,1.074,2.501,0.453c1.11-0.649,1.009-2.476,1.009-2.476
	s2.391,1.163,3.178,0.323c0.789-0.844,0.615-2.855,0.566-2.876c0,0,2.188,1.3,3.148,0.298c1.232-0.867,1.007-2.984,1.007-2.984
	s2.009,0.985,2.81-0.117c0.963-0.694,0.689-2.562,0.689-2.562s1.668,0.519,2.453-0.474c0.748-0.947-0.131-3.16-0.131-3.16
	s2.072-0.189,2.496-1.325c0.457-1.228-1.112-2.541-1.112-2.541s2.161-0.069,2.473-1.487c0.288-1.318-1.411-2.221-1.411-2.221
	s2.205-0.24,2.367-1.755c0.15-1.412-1.508-2.385-1.508-2.385s2.012-0.595,2.17-2.013c0.171-1.541-1.503-2.266-1.503-2.266
	s1.446-0.572,1.78-1.902c0.304-1.203-1.535-2.443-1.535-2.443s1.742-1.383,1.742-2.909S134.244,347.76,134.244,347.76
	L134.244,347.76z"/>
<g id="VuAmoB.tif">
	
		<image overflow="visible" enable-background="new    " width="433" height="581" id="Layer_0" xlink:href="11FC0BA.png"  transform="matrix(0.4324 0 0 0.4324 0.7885 4.3535)">
	</image>
</g>
</svg>
