<?xml version="1.0" encoding="utf-8"?>
<!-- Generator: Adobe Illustrator 15.0.0, SVG Export Plug-In . SVG Version: 6.00 Build 0)  -->
<!DOCTYPE svg PUBLIC "-//W3C//DTD SVG 1.1//EN" "http://www.w3.org/Graphics/SVG/1.1/DTD/svg11.dtd">
<svg version="1.1"
	 id="svg2" xmlns:svg="http://www.w3.org/2000/svg" xmlns:rdf="http://www.w3.org/1999/02/22-rdf-syntax-ns#" xmlns:cc="http://creativecommons.org/ns#" xmlns:dc="http://purl.org/dc/elements/1.1/"
	 xmlns="http://www.w3.org/2000/svg" xmlns:xlink="http://www.w3.org/1999/xlink" x="0px" y="0px" width="190px" height="657px"
	 viewBox="0 0 190 657" enable-background="new 0 0 190 657" xml:space="preserve">
<path id="path3050" fill="#040464" d="M189.61,307.493H0.392v297.344l94.594,47.562l94.594-47.562L189.61,307.493z"/>
<path id="path3227" fill="#999D00" d="M94.985,437.212c-60.799-0.173-89,49.969-89,49.969v9.781v18.188l89,44.655l89-44.655v-18.188
	v-9.781C183.985,487.18,155.784,437.039,94.985,437.212z M94.985,455.367c40.805,0,67.602,28.314,80.344,45.97l-80.344,40.594
	l-80.344-40.594C27.375,483.682,54.181,455.367,94.985,455.367z"/>
<g id="g4366" transform="translate(-289.42676,-314.35751)">
	
		<linearGradient id="path4338_1_" gradientUnits="userSpaceOnUse" x1="919.9922" y1="1106.3712" x2="915.9064" y2="1114.2927" gradientTransform="matrix(1 0 0 1 -578.8535 -266)">
		<stop  offset="0" style="stop-color:#F9F900"/>
		<stop  offset="1" style="stop-color:#999D00;stop-opacity:0"/>
	</linearGradient>
	<path id="path4338" fill="url(#path4338_1_)" d="M295.422,811.311v18.193l88.99,44.662v-17.865L295.422,811.311z"/>
	
		<linearGradient id="path4362_1_" gradientUnits="userSpaceOnUse" x1="-282.0098" y1="1106.3693" x2="-286.0958" y2="1114.2913" gradientTransform="matrix(-1 0 0 1 145.6758 -266)">
		<stop  offset="0" style="stop-color:#F9F900"/>
		<stop  offset="1" style="stop-color:#999D00;stop-opacity:0"/>
	</linearGradient>
	<path id="path4362" fill="url(#path4362_1_)" d="M473.402,811.311v18.193l-88.99,44.662v-17.865L473.402,811.311z"/>
</g>
<path id="path3163" fill="#999D00" d="M5.519,536.115v18.188l89,44.656l89-44.656v-18.188l-89,44.97L5.519,536.115z"/>
<g id="g3165" transform="translate(-289.89285,-275.20497)">
	
		<linearGradient id="path3167_1_" gradientUnits="userSpaceOnUse" x1="920.9241" y1="1106.371" x2="916.8381" y2="1114.293" gradientTransform="matrix(1 0 0 1 -579.7861 -266)">
		<stop  offset="0" style="stop-color:#F9F900"/>
		<stop  offset="1" style="stop-color:#999D00;stop-opacity:0"/>
	</linearGradient>
	<path id="path3167" fill="url(#path3167_1_)" d="M295.422,811.31v18.195l88.99,44.66v-17.864L295.422,811.31z"/>
	
		<linearGradient id="path3169_1_" gradientUnits="userSpaceOnUse" x1="-281.0764" y1="1106.37" x2="-285.1626" y2="1114.2924" gradientTransform="matrix(-1 0 0 1 146.608 -266)">
		<stop  offset="0" style="stop-color:#F9F900"/>
		<stop  offset="1" style="stop-color:#999D00;stop-opacity:0"/>
	</linearGradient>
	<path id="path3169" fill="url(#path3169_1_)" d="M473.402,811.31v18.195l-88.99,44.66v-17.864L473.402,811.31z"/>
</g>
<path id="path3215" fill="#999D00" d="M5.519,575.912v18.188l89,44.655l89-44.655v-18.188l-89,44.969L5.519,575.912z"/>
<g id="g4006" transform="translate(-0.015625,46.265625)">
	
		<linearGradient id="path3219_1_" gradientUnits="userSpaceOnUse" x1="341.168" y1="1106.3721" x2="337.0826" y2="1114.2928" gradientTransform="matrix(1 0 0 1 -289.9087 -547.6738)">
		<stop  offset="0" style="stop-color:#F9F900"/>
		<stop  offset="1" style="stop-color:#999D00;stop-opacity:0"/>
	</linearGradient>
	<path id="path3219" fill="url(#path3219_1_)" d="M5.545,529.636v18.194l88.99,44.66v-17.863L5.545,529.636z"/>
	
		<linearGradient id="path3221_1_" gradientUnits="userSpaceOnUse" x1="-860.834" y1="1106.3701" x2="-864.9194" y2="1114.2913" gradientTransform="matrix(-1 0 0 1 -723.0234 -547.6738)">
		<stop  offset="0" style="stop-color:#F9F900"/>
		<stop  offset="1" style="stop-color:#999D00;stop-opacity:0"/>
	</linearGradient>
	<path id="path3221" fill="url(#path3221_1_)" d="M183.524,529.636v18.194l-88.99,44.66v-17.863L183.524,529.636z"/>
</g>
<path id="path8132" fill="#999D00" d="M51.777,317.251l-4.833,14.793l12.454,9.333l-15.562-0.025l-5.028,14.729l-4.785-14.809
	l-15.561-0.229l12.605-9.128l-4.59-14.871l12.576,9.168L51.777,317.251z"/>
<path id="path3087" fill="#999D00" d="M163.921,317.251l-4.833,14.793l12.454,9.333l-15.562-0.025l-5.028,14.729l-4.785-14.809
	l-15.562-0.229l12.605-9.128l-4.59-14.87l12.576,9.168L163.921,317.251z"/>
<path id="path2855" fill="#999D00" d="M95.001,530.501c0,0,27.318-16.716,27.318-42.813l0.002-17.193
	c-8.322,5.904-18.932,5.256-27.32,0c-8.388,5.257-18.998,5.906-27.32,0l0.001,17.193C67.682,513.785,95.001,530.501,95.001,530.501
	L95.001,530.501z"/>
<path id="path3077" fill="#999D00" d="M107.849,317.251l-4.832,14.793l12.453,9.333l-15.562-0.025L94.88,356.08l-4.786-14.809
	l-15.561-0.229l12.605-9.128l-4.59-14.871l12.576,9.168L107.849,317.251z"/>
<path id="path3050-9-5" fill="#F1F1F1" d="M134.245,392.512c0,0,4.477-2.809,4.39-4.088c0.036-0.906-0.763-1.376-0.763-1.376
	s5.211-3.606,5.23-4.89c0.041-1.026-0.666-1.412-0.666-1.412c3.088-2.157,5.77-4.489,6.645-8.336c0,0-7.614,0.148-23.178,9.974
	c-21.453,13.543-15.489,18.618-15.489,18.618s5.063,5.062,1.937,9.085c-3.127,4.021-6.852,4.021-6.852,4.021
	s-0.059-4.264-1.607-5.108c-1.548-0.845,1.726-12.698-1.967-17.083c-2.266-2.692-3.574-3.575-10.128-2.979
	c-6.554,0.596-9.979,3.574-9.979,3.574s-1.49,1.936-0.894,3.575c0.596,1.638,2.085-0.149,2.085-0.149s1.787,1.043,4.319,1.489
	c0,0,6.281,1.712-1.044,7.487c-7.324,5.775-5.658,8.152-5.658,8.152s-7.447-4.767-2.532-12.064
	c4.915-7.299-25.022-24.129-25.022-24.129s-5.809-3.127-8.489-3.574c-2.681-0.447-5.809-1.191-5.809-1.191l0,0
	c0,0,2.085,5.213,4.17,7s3.277,2.383,3.277,2.383s-0.737,0.771-0.617,1.502c-0.083,0.9,5.425,4.377,5.425,4.377
	s-1.044,0.547-0.944,1.521c0.05,1.325,3.582,3.324,3.582,3.324s-1.838,1.112-1.796,2.632c0.048,1.73,1.797,3.049,1.797,3.049
	s-2.132,1.568-1.709,3.018c0.341,1.57,2.156,1.727,2.156,1.727s-2.123,1.184-1.657,2.829c0.492,1.495,2.401,1.192,2.401,1.192
	s-2.158,1.742-1.405,3.318c0.737,1.543,3.044,0.852,3.044,0.852s-2.209,2.32-1.361,3.681c0.723,1.16,2.404,0.64,2.404,0.64
	s-1.365,1.562-0.425,2.851c0.891,1.221,2.841,1.42,2.841,1.42s-1.221,2.013-0.179,2.905c1.042,0.895,2.83,0.291,2.83,0.291
	s-0.78,2.408,0.412,3.451c1.191,1.043,2.996-0.061,2.996-0.061s-0.379,2.167,0.812,3.061c1.069,0.854,3.144-0.562,3.144-0.562
	s0.247,2.499,1.15,3.099c0.757,0.502,2.783-0.539,2.783-0.539s0.158,1.892,1.498,2.635c1.34,0.511,2.384-0.68,2.384-0.68
	s0.274,1.916,1.614,2.362s2.607-0.886,2.607-0.886l-0.19,11.184H70.109v6.852h12.602c0,0-0.586,1.891,0.089,2.547
	c0.536,0.521,2.131-0.135,2.131-0.135s-0.626,1.463,0.104,2.146c0.67,0.626,2.234-0.312,2.234-0.312s-0.462,1.758,0.521,2.219
	c1.028,0.551,2.13-0.819,2.13-0.819s-0.313,2.146,1.027,2.593c1.341,0.446,2.428-1.938,2.428-1.938s0.596,2.518,1.787,2.518
	c1.192,0,1.862-2.547,1.862-2.547s1.102,2.29,2.295,1.848c1.324-0.492,1.176-2.354,1.176-2.354s1.533,1.594,2.338,1.102
	c0.764-0.465,0.566-2.547,0.566-2.547s1.531,1.025,2.354,0.551c0.816-0.473,0.282-2.519,0.282-2.519s1.624,0.521,2.22-0.224
	c0.596-0.745,0.372-2.129,0.372-2.129h11.915v-6.83h-11.318l-0.059-10.319c0,0,1.395-0.228,2.311-0.998
	c0.92-0.653,1.322-2.619,1.322-2.619s1.441,1.075,2.501,0.454c1.11-0.65,1.009-2.477,1.009-2.477s2.391,1.164,3.178,0.324
	c0.789-0.845,0.615-2.856,0.566-2.877c0,0,2.188,1.301,3.148,0.299c1.232-0.867,1.007-2.984,1.007-2.984s2.009,0.984,2.81-0.117
	c0.963-0.695,0.689-2.562,0.689-2.562s1.668,0.52,2.453-0.473c0.748-0.947-0.131-3.16-0.131-3.16s2.072-0.19,2.496-1.326
	c0.457-1.228-1.112-2.541-1.112-2.541s2.161-0.069,2.473-1.487c0.288-1.317-1.411-2.22-1.411-2.22s2.205-0.241,2.367-1.756
	c0.15-1.412-1.508-2.385-1.508-2.385s2.012-0.595,2.17-2.012c0.171-1.541-1.503-2.266-1.503-2.266s1.446-0.572,1.78-1.902
	c0.304-1.203-1.535-2.443-1.535-2.443s1.742-1.383,1.742-2.91C135.987,393.419,134.245,392.512,134.245,392.512L134.245,392.512z"/>
<g id="j6kUKv.tif">
	
		<image overflow="visible" enable-background="new    " width="367" height="590" id="Layer_0" xlink:href="C9AD8C22.png"  transform="matrix(0.5016 0 0 0.5016 2.9546 4.6006)">
	</image>
</g>
</svg>
