<?xml version="1.0" encoding="utf-8"?>
<!-- Generator: Adobe Illustrator 15.0.0, SVG Export Plug-In . SVG Version: 6.00 Build 0)  -->
<!DOCTYPE svg PUBLIC "-//W3C//DTD SVG 1.1//EN" "http://www.w3.org/Graphics/SVG/1.1/DTD/svg11.dtd">
<svg version="1.1"
	 id="svg2" xmlns:svg="http://www.w3.org/2000/svg" xmlns:rdf="http://www.w3.org/1999/02/22-rdf-syntax-ns#" xmlns:cc="http://creativecommons.org/ns#" xmlns:dc="http://purl.org/dc/elements/1.1/"
	 xmlns="http://www.w3.org/2000/svg" xmlns:xlink="http://www.w3.org/1999/xlink" x="0px" y="0px" width="190px" height="544.441px"
	 viewBox="0 0 190 544.441" enable-background="new 0 0 190 544.441" xml:space="preserve">
<path id="path3050" fill="#040464" d="M-0.467,241.773v249.79l94.594,47.57l94.625-47.57v-249.79H94.125H-0.467z"/>
<g id="g4272" transform="matrix(0.1118772,0,0,0.1118772,29.075317,65.981492)">
	<path id="path3495" fill="#F1F1F1" d="M559.962,2619.868l-11.217,9.61l-3.203-1.606l-12.814,12.823c0,0-7.21-4.007-32.842,16.821
		c-25.633,20.827-69.687,63.284-69.687,63.284s-33.641,35.239-28.836,44.849l-8.009,7.21l-2.405,8.013l-8.009,9.619l15.219,15.215
		l12.015-7.21l4.805,0.794l9.611-8.799c0,0,16.022,3.195,38.451-16.829c22.429-20.024,25.632-24.022,25.632-24.022l73.689,75.287
		l-99.322,104.136c0,0-16.821,24.022-30.438,7.21c-13.617-16.829-9.615-37.647-9.615-37.647l12.015-5.613l2.405-60.875
		c0,0-40.851,17.624-55.271,35.239c-14.416,17.632-14.416,35.247-14.416,35.247l14.416,0.803c0,0,21.63,59.278,30.438,71.289
		c8.812,12.011,3.208,24.031,3.208,24.031s10.409-8.004,31.236,5.613c20.827,13.617,67.287,24.825,67.287,24.825v12.814
		c0,0,36.042-9.611,51.26-37.639c15.219-28.037,15.219-36.853,15.219-36.853l-60.875,8.013l-4.805,12.011
		c0,0-20.024,5.604-36.046-7.21c-16.018-12.814,0.803-24.825,0.803-24.825l102.53-110.534l105.724,112.934
		c0,0,12.823,17.632-12.011,26.449c-24.825,8.799-28.84,3.998-28.84,3.998l-6.407-12.814l-58.466-7.21
		c0,0,9.611,34.444,28.84,52.059c19.221,17.632,37.639,22.433,37.639,22.433l0.803-12.814c0,0,60.875-20.024,71.289-28.037
		s27.234-2.409,27.234-2.409s-9.611-10.405,8.004-34.444c17.632-24.022,25.637-62.473,25.637-62.473l13.617,0.794
		c0,0-8.808-39.245-40.851-57.663c-32.044-18.427-28.832-12.814-28.832-12.814l3.998,59.269l11.217,6.407
		c0,0,1.597,26.431-11.217,38.442c-12.814,12.028-20.827-0.786-20.827-0.786l-106.527-109.757l76.902-77.696
		c0,0,38.442,34.444,52.059,38.451c13.617,3.998,12.011,0.803,12.011,0.803l10.422,8.004l3.998,0.803l12.814,8.004l14.42-15.214
		l-8.808-13.617l0.794-3.204l-11.208-10.414c0,0,2.401-4.81-7.21-20.024s-48.061-49.659-48.061-49.659s-47.258-44.867-58.466-49.667
		c-11.225-4.801-16.026-3.204-16.026-3.204l-12.011-12.02l-2.409-0.794l-12.814-7.21l-15.223,13.617l8.816,12.814l-0.803,4.006
		l12.814,15.223l-3.998,2.4c0,0,13.617,18.427,25.628,32.838c12.011,14.42,21.63,24.031,21.63,24.031l-76.098,79.302l-68.085-77.696
		c0,0,34.444-40.048,40.048-48.864c5.608-8.816,2.405-12.011,2.405-12.011l12.015-15.223v-3.203l7.21-12.823L559.962,2619.868z"/>
	<path id="path3497" fill="#F1F1F1" d="M431.407,2620.671c-23.673,0-42.872,19.168-42.872,42.841s19.199,42.876,42.872,42.876
		s42.846-19.203,42.846-42.876S455.08,2620.671,431.407,2620.671z M431.407,2635.825c15.293,0,27.688,12.404,27.688,27.688
		s-12.395,27.688-27.688,27.688c-15.289,0-27.684-12.404-27.684-27.688S416.118,2635.825,431.407,2635.825z"/>
	<path id="path4270" fill="#F1F1F1" d="M736.595,2619.074c-23.673,0-42.876,19.169-42.876,42.842
		c0,23.673,19.204,42.876,42.876,42.876c23.673,0,42.841-19.204,42.841-42.876C779.437,2638.242,760.268,2619.074,736.595,2619.074z
		 M736.595,2634.227c15.284,0,27.688,12.395,27.688,27.688c0,15.284-12.404,27.688-27.688,27.688
		c-15.293,0-27.688-12.404-27.688-27.688C708.907,2646.622,721.302,2634.227,736.595,2634.227z"/>
</g>
<path id="path4340" fill="#680000" d="M5.142,383.705v18.188l89,44.656l89-44.656v-18.188l-89,44.97L5.142,383.705z"/>
<g id="g4366" transform="translate(-289.41113,-360.62314)">
	
		<linearGradient id="path4338_1_" gradientUnits="userSpaceOnUse" x1="919.1006" y1="1084.3776" x2="915.0146" y2="1092.2994" gradientTransform="matrix(1 0 0 1 -578.8223 -311)">
		<stop  offset="0" style="stop-color:#EC0000"/>
		<stop  offset="1" style="stop-color:#680000;stop-opacity:0"/>
	</linearGradient>
	<path id="path4338" fill="url(#path4338_1_)" d="M294.562,744.318v18.195l88.99,44.66v-17.864L294.562,744.318z"/>
	
		<linearGradient id="path4362_1_" gradientUnits="userSpaceOnUse" x1="-281.1812" y1="1084.3776" x2="-285.2674" y2="1092.3" gradientTransform="matrix(-1 0 0 1 145.6445 -311)">
		<stop  offset="0" style="stop-color:#EC0000"/>
		<stop  offset="1" style="stop-color:#680000;stop-opacity:0"/>
	</linearGradient>
	<path id="path4362" fill="url(#path4362_1_)" d="M472.543,744.318v18.195l-88.99,44.66v-17.864L472.543,744.318z"/>
</g>
<path id="path3163" fill="#680000" d="M4.676,422.857v18.188l89,44.656l89-44.656v-18.188l-89,44.969L4.676,422.857z"/>
<g id="g3165" transform="translate(-289.87722,-321.4706)">
	
		<linearGradient id="path3167_1_" gradientUnits="userSpaceOnUse" x1="920.0334" y1="1084.3773" x2="915.947" y2="1092.2999" gradientTransform="matrix(1 0 0 1 -579.7549 -311)">
		<stop  offset="0" style="stop-color:#EC0000"/>
		<stop  offset="1" style="stop-color:#680000;stop-opacity:0"/>
	</linearGradient>
	<path id="path3167" fill="url(#path3167_1_)" d="M294.563,744.318v18.195l88.99,44.66v-17.864L294.563,744.318z"/>
	
		<linearGradient id="path3169_1_" gradientUnits="userSpaceOnUse" x1="-280.2498" y1="1084.3783" x2="-284.3353" y2="1092.2994" gradientTransform="matrix(-1 0 0 1 146.5767 -311)">
		<stop  offset="0" style="stop-color:#EC0000"/>
		<stop  offset="1" style="stop-color:#680000;stop-opacity:0"/>
	</linearGradient>
	<path id="path3169" fill="url(#path3169_1_)" d="M472.542,744.318v18.195l-88.99,44.66v-17.864L472.542,744.318z"/>
</g>
<path id="path3215" fill="#680000" d="M4.676,462.654v18.188l89,44.655l89-44.655v-18.188l-89,44.969L4.676,462.654z"/>
<g id="g3217" transform="translate(-289.87722,-281.67421)">
	
		<linearGradient id="path3219_1_" gradientUnits="userSpaceOnUse" x1="920.0344" y1="1084.3788" x2="915.9482" y2="1092.301" gradientTransform="matrix(1 0 0 1 -579.7549 -311)">
		<stop  offset="0" style="stop-color:#EC0000"/>
		<stop  offset="1" style="stop-color:#680000;stop-opacity:0"/>
	</linearGradient>
	<path id="path3219" fill="url(#path3219_1_)" d="M294.563,744.318v18.195l88.99,44.66v-17.865L294.563,744.318z"/>
	
		<linearGradient id="path3221_1_" gradientUnits="userSpaceOnUse" x1="-280.2488" y1="1084.3768" x2="-284.3353" y2="1092.2998" gradientTransform="matrix(-1 0 0 1 146.5767 -311)">
		<stop  offset="0" style="stop-color:#EC0000"/>
		<stop  offset="1" style="stop-color:#680000;stop-opacity:0"/>
	</linearGradient>
	<path id="path3221" fill="url(#path3221_1_)" d="M472.542,744.318v18.195l-88.99,44.66v-17.865L472.542,744.318z"/>
</g>
<path id="path3050-9-5-7" fill="#F1F1F1" d="M133.401,279.253c0,0,4.479-2.807,4.391-4.088c0.035-0.905-0.764-1.375-0.764-1.375
	s5.211-3.607,5.231-4.889c0.04-1.027-0.667-1.413-0.667-1.413c3.089-2.157,5.77-4.489,6.645-8.335c0,0-7.613,0.148-23.177,9.973
	c-21.454,13.543-15.489,18.618-15.489,18.618s5.063,5.064,1.937,9.086c-3.128,4.021-6.853,4.021-6.853,4.021
	s-0.058-4.265-1.606-5.108c-1.55-0.846,1.725-12.699-1.968-17.084c-2.266-2.691-3.573-3.574-10.127-2.979
	c-6.553,0.596-9.979,3.574-9.979,3.574s-1.49,1.938-0.894,3.576c0.596,1.638,2.085-0.149,2.085-0.149s1.787,1.042,4.319,1.489
	c0,0,6.281,1.713-1.044,7.488c-7.324,5.774-5.659,8.15-5.659,8.15s-7.447-4.766-2.532-12.064
	c4.915-7.297-25.022-24.127-25.022-24.127s-5.809-3.128-8.49-3.575c-2.681-0.447-5.809-1.191-5.809-1.191l0,0
	c0,0,2.085,5.213,4.17,7s3.276,2.383,3.276,2.383s-0.737,0.769-0.616,1.5c-0.083,0.901,5.425,4.378,5.425,4.378
	s-1.043,0.547-0.944,1.52c0.051,1.326,3.583,3.324,3.583,3.324s-1.84,1.113-1.797,2.633c0.048,1.73,1.797,3.049,1.797,3.049
	s-2.132,1.568-1.709,3.018c0.341,1.57,2.156,1.727,2.156,1.727s-2.124,1.184-1.657,2.83c0.492,1.494,2.401,1.191,2.401,1.191
	s-2.159,1.743-1.405,3.319c0.737,1.542,3.043,0.851,3.043,0.851s-2.209,2.321-1.361,3.682c0.723,1.16,2.404,0.639,2.404,0.639
	s-1.365,1.562-0.425,2.852c0.891,1.221,2.841,1.42,2.841,1.42s-1.221,2.013-0.179,2.906c1.042,0.895,2.83,0.291,2.83,0.291
	s-0.779,2.408,0.412,3.451c1.191,1.042,2.996-0.061,2.996-0.061s-0.379,2.168,0.812,3.062c1.069,0.853,3.144-0.562,3.144-0.562
	s0.246,2.498,1.15,3.098c0.757,0.502,2.783-0.537,2.783-0.537s0.158,1.891,1.498,2.635c1.34,0.512,2.384-0.68,2.384-0.68
	s0.273,1.916,1.614,2.363c1.34,0.447,2.607-0.887,2.607-0.887l-0.191,11.184H69.266v6.852h12.603c0,0-0.586,1.889,0.089,2.545
	c0.536,0.521,2.13-0.134,2.13-0.134s-0.626,1.464,0.104,2.146c0.67,0.625,2.234-0.312,2.234-0.312s-0.462,1.757,0.521,2.22
	c1.028,0.551,2.13-0.819,2.13-0.819s-0.313,2.146,1.027,2.591s2.428-1.938,2.428-1.938s0.595,2.519,1.787,2.519
	c1.191,0,1.861-2.547,1.861-2.547s1.103,2.29,2.295,1.847c1.326-0.492,1.176-2.354,1.176-2.354s1.535,1.595,2.339,1.103
	c0.764-0.466,0.565-2.547,0.565-2.547s1.532,1.026,2.354,0.55c0.815-0.472,0.282-2.518,0.282-2.518s1.623,0.521,2.22-0.223
	c0.596-0.744,0.373-2.129,0.373-2.129h11.914v-6.83H108.38l-0.059-10.32c0,0,1.395-0.227,2.311-0.998
	c0.921-0.653,1.322-2.618,1.322-2.618s1.44,1.075,2.502,0.454c1.108-0.65,1.008-2.477,1.008-2.477s2.391,1.164,3.177,0.323
	c0.79-0.844,0.616-2.856,0.567-2.876c0,0,2.188,1.301,3.147,0.299c1.231-0.867,1.009-2.984,1.009-2.984s2.008,0.984,2.807-0.116
	c0.965-0.695,0.691-2.562,0.691-2.562s1.668,0.519,2.452-0.476c0.749-0.946-0.131-3.16-0.131-3.16s2.072-0.19,2.496-1.325
	c0.458-1.227-1.11-2.541-1.11-2.541s2.16-0.068,2.473-1.488c0.287-1.317-1.412-2.219-1.412-2.219s2.205-0.242,2.367-1.756
	c0.15-1.412-1.508-2.385-1.508-2.385s2.012-0.596,2.17-2.012c0.172-1.541-1.502-2.266-1.502-2.266s1.445-0.572,1.78-1.902
	c0.304-1.201-1.537-2.442-1.537-2.442s1.744-1.382,1.744-2.909S133.401,279.253,133.401,279.253L133.401,279.253z"/>
<g id="wU1wj9.tif">
	
		<image overflow="visible" enable-background="new    " width="504" height="583" id="Layer_0" xlink:href="B5D3C44.png"  transform="matrix(0.3775 0 0 0.3775 -1.1992 5.3071)">
	</image>
</g>
</svg>
