<?xml version="1.0" encoding="utf-8"?>
<!-- Generator: Adobe Illustrator 15.0.0, SVG Export Plug-In . SVG Version: 6.00 Build 0)  -->
<!DOCTYPE svg PUBLIC "-//W3C//DTD SVG 1.1//EN" "http://www.w3.org/Graphics/SVG/1.1/DTD/svg11.dtd">
<svg version="1.1"
	 id="svg2" xmlns:svg="http://www.w3.org/2000/svg" xmlns:rdf="http://www.w3.org/1999/02/22-rdf-syntax-ns#" xmlns:cc="http://creativecommons.org/ns#" xmlns:dc="http://purl.org/dc/elements/1.1/"
	 xmlns="http://www.w3.org/2000/svg" xmlns:xlink="http://www.w3.org/1999/xlink" x="0px" y="0px" width="190px" height="459.5px"
	 viewBox="0 0 190 459.5" enable-background="new 0 0 190 459.5" xml:space="preserve">
<path id="path3050" fill="#040464" d="M0.391,195.71v210.093l94.594,47.473l94.625-47.473V195.71H94.984H0.391z"/>
<g id="g4272" transform="matrix(0.1118772,0,0,0.1118772,29.075315,65.879685)">
	<path id="path3495" fill="#F1F1F1" d="M567.635,2209.049l-11.217,9.619l-3.204-1.606l-12.814,12.814c0,0-7.21-4.006-32.843,16.821
		c-25.632,20.836-69.687,63.276-69.687,63.276s-33.641,35.247-28.836,44.866l-8.009,7.201l-2.405,8.013l-8.009,9.611l15.219,15.223
		l12.015-7.21l4.805,0.803l9.611-8.816c0,0,16.022,3.203,38.451-16.821c22.429-20.024,25.633-24.031,25.633-24.031l73.689,75.295
		l-99.322,104.136c0,0-16.821,24.022-30.438,7.201c-13.617-16.821-9.615-37.648-9.615-37.648l12.015-5.604l2.405-60.875
		c0,0-40.851,17.615-55.271,35.247c-14.416,17.615-14.416,35.239-14.416,35.239l14.416,0.803c0,0,21.63,59.278,30.438,71.289
		c8.812,12.011,3.208,24.031,3.208,24.031s10.409-8.013,31.236,5.604c20.827,13.617,67.287,24.833,67.287,24.833v12.814
		c0,0,36.042-9.61,51.26-37.647c15.219-28.029,15.219-36.845,15.219-36.845l-60.875,8.013l-4.805,12.011
		c0,0-20.024,5.604-36.046-7.21c-16.018-12.814,0.803-24.825,0.803-24.825l102.53-110.542l105.724,112.943
		c0,0,12.823,17.624-12.011,26.431c-24.825,8.808-28.84,4.007-28.84,4.007l-6.407-12.814l-58.466-7.21c0,0,9.61,34.444,28.84,52.059
		c19.221,17.633,37.639,22.433,37.639,22.433l0.803-12.814c0,0,60.875-20.024,71.289-28.037c10.414-8.013,27.234-2.409,27.234-2.409
		s-9.61-10.405,8.004-34.444c17.633-24.022,25.637-62.473,25.637-62.473l13.617,0.803c0,0-8.807-39.254-40.851-57.672
		c-32.044-18.427-28.832-12.814-28.832-12.814l3.998,59.269l11.217,6.407c0,0,1.597,26.431-11.217,38.451
		c-12.814,12.02-20.827-0.803-20.827-0.803l-106.528-109.731l76.902-77.705c0,0,38.442,34.444,52.059,38.451
		c13.617,4.007,12.011,0.803,12.011,0.803l10.422,8.004l3.998,0.803l12.814,8.013l14.42-15.223l-8.807-13.617l0.794-3.203
		l-11.208-10.414c0,0,2.4-4.801-7.21-20.024c-9.61-15.223-48.061-49.659-48.061-49.659s-47.258-44.858-58.466-49.659
		c-11.225-4.81-16.026-3.212-16.026-3.212l-12.011-12.011l-2.409-0.803l-12.814-7.21l-15.223,13.617l8.816,12.814l-0.803,4.007
		l12.814,15.223l-3.998,2.4c0,0,13.617,18.418,25.628,32.838c12.011,14.42,21.63,24.04,21.63,24.04l-76.099,79.293l-68.085-77.696
		c0,0,34.444-40.057,40.048-48.865c5.608-8.807,2.405-12.011,2.405-12.011l12.015-15.223v-3.204l7.21-12.814L567.635,2209.049z"/>
	<path id="path3497" fill="#F1F1F1" d="M439.08,2209.853c-23.673,0-42.872,19.169-42.872,42.841
		c0,23.673,19.199,42.876,42.872,42.876c23.673,0,42.846-19.204,42.846-42.876C481.926,2229.021,462.752,2209.853,439.08,2209.853z
		 M439.08,2225.006c15.293,0,27.688,12.395,27.688,27.688s-12.395,27.688-27.688,27.688c-15.289,0-27.684-12.395-27.684-27.688
		S423.791,2225.006,439.08,2225.006z"/>
	<path id="path4270" fill="#F1F1F1" d="M744.268,2208.247c-23.673,0-42.876,19.177-42.876,42.85
		c0,23.673,19.204,42.867,42.876,42.867s42.841-19.195,42.841-42.867C787.109,2227.424,767.941,2208.247,744.268,2208.247z
		 M744.268,2223.409c15.284,0,27.688,12.395,27.688,27.688c0,15.284-12.404,27.688-27.688,27.688
		c-15.293,0-27.688-12.404-27.688-27.688C716.58,2235.804,728.975,2223.409,744.268,2223.409z"/>
</g>
<path id="path4340" fill="#680000" d="M6,337.643v18.188l89,44.656l89-44.656v-18.188l-89,44.969L6,337.643L6,337.643z"/>
<g id="g4366" transform="translate(-289.41113,-360.72495)">
	
		<linearGradient id="path4338_1_" gradientUnits="userSpaceOnUse" x1="919.959" y1="1078.4183" x2="915.873" y2="1086.3403" gradientTransform="matrix(1 0 0 1 -578.8223 -351)">
		<stop  offset="0" style="stop-color:#EC0000"/>
		<stop  offset="1" style="stop-color:#680000;stop-opacity:0"/>
	</linearGradient>
	<path id="path4338" fill="url(#path4338_1_)" d="M295.421,698.358v18.194l88.99,44.661v-17.865L295.421,698.358z"/>
	
		<linearGradient id="path4362_1_" gradientUnits="userSpaceOnUse" x1="-282.041" y1="1078.4183" x2="-286.127" y2="1086.3403" gradientTransform="matrix(-1 0 0 1 145.6445 -351)">
		<stop  offset="0" style="stop-color:#EC0000"/>
		<stop  offset="1" style="stop-color:#680000;stop-opacity:0"/>
	</linearGradient>
	<path id="path4362" fill="url(#path4362_1_)" d="M473.401,698.358v18.194l-88.99,44.661v-17.865L473.401,698.358z"/>
</g>
<path id="path3163" fill="#680000" d="M5.534,376.795v18.188l89,44.655l89-44.655v-18.188l-89,44.969L5.534,376.795z"/>
<g id="g3165" transform="translate(-289.87722,-321.57241)">
	
		<linearGradient id="path3167_1_" gradientUnits="userSpaceOnUse" x1="920.8909" y1="1078.4161" x2="916.8047" y2="1086.3383" gradientTransform="matrix(1 0 0 1 -579.7549 -351)">
		<stop  offset="0" style="stop-color:#EC0000"/>
		<stop  offset="1" style="stop-color:#680000;stop-opacity:0"/>
	</linearGradient>
	<path id="path3167" fill="url(#path3167_1_)" d="M295.421,698.358v18.193l88.99,44.661v-17.864L295.421,698.358z"/>
	
		<linearGradient id="path3169_1_" gradientUnits="userSpaceOnUse" x1="-281.1062" y1="1078.4171" x2="-285.1917" y2="1086.3383" gradientTransform="matrix(-1 0 0 1 146.5767 -351)">
		<stop  offset="0" style="stop-color:#EC0000"/>
		<stop  offset="1" style="stop-color:#680000;stop-opacity:0"/>
	</linearGradient>
	<path id="path3169" fill="url(#path3169_1_)" d="M473.401,698.358v18.193l-88.99,44.661v-17.864L473.401,698.358z"/>
</g>
<path id="path3050-9-5-7" fill="#F1F1F1" d="M134.26,233.191c0,0,4.479-2.807,4.391-4.087c0.035-0.907-0.764-1.377-0.764-1.377
	s5.211-3.607,5.231-4.889c0.04-1.027-0.667-1.413-0.667-1.413c3.089-2.157,5.77-4.489,6.645-8.335c0,0-7.613,0.148-23.177,9.974
	c-21.454,13.543-15.489,18.617-15.489,18.617s5.063,5.063,1.937,9.084c-3.128,4.021-6.853,4.021-6.853,4.021
	s-0.058-4.264-1.606-5.107c-1.55-0.846,1.725-12.698-1.968-17.084c-2.266-2.691-3.573-3.574-10.127-2.979
	c-6.553,0.596-9.979,3.575-9.979,3.575s-1.49,1.937-0.894,3.575c0.596,1.638,2.085-0.149,2.085-0.149s1.787,1.042,4.319,1.489
	c0,0,6.281,1.713-1.044,7.488c-7.324,5.774-5.659,8.15-5.659,8.15s-7.447-4.766-2.532-12.064
	c4.916-7.299-25.021-24.129-25.021-24.129s-5.809-3.127-8.49-3.575c-2.681-0.447-5.809-1.191-5.809-1.191l0,0
	c0,0,2.085,5.213,4.17,7s3.276,2.383,3.276,2.383s-0.737,0.769-0.616,1.5c-0.083,0.901,5.425,4.377,5.425,4.377
	s-1.043,0.547-0.944,1.521c0.051,1.325,3.583,3.323,3.583,3.323s-1.84,1.112-1.797,2.633c0.048,1.73,1.797,3.05,1.797,3.05
	s-2.132,1.567-1.709,3.017c0.341,1.57,2.156,1.728,2.156,1.728s-2.124,1.183-1.657,2.829c0.492,1.494,2.401,1.191,2.401,1.191
	s-2.159,1.743-1.405,3.319c0.737,1.542,3.043,0.851,3.043,0.851s-2.209,2.321-1.361,3.682c0.723,1.16,2.404,0.639,2.404,0.639
	s-1.365,1.562-0.425,2.852c0.891,1.221,2.841,1.42,2.841,1.42s-1.221,2.013-0.179,2.906c1.042,0.895,2.83,0.291,2.83,0.291
	s-0.779,2.408,0.412,3.451c1.191,1.043,2.996-0.061,2.996-0.061s-0.379,2.168,0.812,3.062c1.069,0.853,3.144-0.562,3.144-0.562
	s0.246,2.498,1.15,3.098c0.757,0.502,2.783-0.538,2.783-0.538s0.158,1.892,1.498,2.636c1.34,0.51,2.384-0.68,2.384-0.68
	s0.273,1.916,1.614,2.362c1.34,0.446,2.607-0.888,2.607-0.888l-0.191,11.185H70.124v6.851h12.603c0,0-0.586,1.891,0.089,2.547
	c0.536,0.521,2.13-0.135,2.13-0.135s-0.626,1.465,0.104,2.146c0.67,0.625,2.234-0.312,2.234-0.312s-0.462,1.758,0.521,2.219
	c1.028,0.551,2.13-0.818,2.13-0.818s-0.313,2.145,1.027,2.591s2.428-1.937,2.428-1.937s0.595,2.518,1.787,2.518
	c1.191,0,1.861-2.547,1.861-2.547s1.103,2.29,2.295,1.847c1.326-0.491,1.176-2.353,1.176-2.353s1.535,1.594,2.339,1.102
	c0.764-0.466,0.565-2.547,0.565-2.547s1.532,1.025,2.354,0.551c0.815-0.472,0.282-2.518,0.282-2.518s1.623,0.521,2.22-0.223
	c0.596-0.744,0.373-2.129,0.373-2.129h11.914v-6.83h-11.318l-0.059-10.319c0,0,1.395-0.228,2.311-0.998
	c0.921-0.654,1.322-2.619,1.322-2.619s1.44,1.075,2.5,0.454c1.11-0.65,1.01-2.477,1.01-2.477s2.391,1.164,3.177,0.323
	c0.79-0.844,0.616-2.856,0.567-2.876c0,0,2.188,1.301,3.147,0.299c1.231-0.867,1.009-2.984,1.009-2.984s2.008,0.984,2.807-0.116
	c0.965-0.695,0.691-2.562,0.691-2.562s1.668,0.519,2.452-0.476c0.749-0.946-0.131-3.16-0.131-3.16s2.072-0.19,2.496-1.325
	c0.458-1.227-1.11-2.541-1.11-2.541s2.16-0.068,2.473-1.488c0.287-1.317-1.412-2.219-1.412-2.219s2.205-0.24,2.367-1.756
	c0.15-1.412-1.508-2.385-1.508-2.385s2.012-0.595,2.17-2.012c0.172-1.541-1.502-2.266-1.502-2.266s1.445-0.572,1.78-1.902
	c0.304-1.202-1.537-2.443-1.537-2.443s1.744-1.382,1.744-2.909C136.003,234.102,134.26,233.191,134.26,233.191L134.26,233.191z"/>
<g id="_x33_dkcOs.tif">
	
		<image overflow="visible" enable-background="new    " width="595" height="582" id="Layer_0" xlink:href="ECD2A716.png"  transform="matrix(0.3209 0 0 0.3209 -1.1543 6.2236)">
	</image>
</g>
</svg>
