<?xml version="1.0" encoding="utf-8"?>
<!-- Generator: Adobe Illustrator 15.0.0, SVG Export Plug-In . SVG Version: 6.00 Build 0)  -->
<!DOCTYPE svg PUBLIC "-//W3C//DTD SVG 1.1//EN" "http://www.w3.org/Graphics/SVG/1.1/DTD/svg11.dtd">
<svg version="1.1"
	 id="svg2" xmlns:svg="http://www.w3.org/2000/svg" xmlns:rdf="http://www.w3.org/1999/02/22-rdf-syntax-ns#" xmlns:cc="http://creativecommons.org/ns#" xmlns:dc="http://purl.org/dc/elements/1.1/"
	 xmlns="http://www.w3.org/2000/svg" xmlns:xlink="http://www.w3.org/1999/xlink" x="0px" y="0px" width="190px" height="409.5px"
	 viewBox="0 0 190 409.5" enable-background="new 0 0 190 409.5" xml:space="preserve">
<path id="path3050" fill="#040464" d="M0.531,182.291v171.375l94.594,47.969l94.625-47.969V182.291H95.124H0.531z"/>
<path id="path4340" fill="#680000" d="M6.14,324.223v18.188l89,44.655l89-44.655v-18.188l-89,44.969L6.14,324.223z"/>
<g id="g4272" transform="matrix(0.1118772,0,0,0.1118772,29.07531,64.98988)">
	<path id="path3495" fill="#F1F1F1" d="M568.883,2097.059l-11.217,9.61l-3.203-1.606l-12.814,12.823c0,0-7.21-4.007-32.843,16.821
		s-69.687,63.284-69.687,63.284s-33.641,35.239-28.836,44.849l-8.009,7.21l-2.405,8.013l-8.009,9.611l15.219,15.215l12.015-7.21
		l4.805,0.803l9.611-8.807c0,0,16.022,3.203,38.451-16.821c22.429-20.024,25.632-24.031,25.632-24.031l73.689,75.287
		l-99.322,104.136c0,0-16.821,24.031-30.438,7.21c-13.617-16.821-9.615-37.648-9.615-37.648l12.015-5.613l2.405-60.875
		c0,0-40.851,17.633-55.271,35.247c-14.416,17.624-14.416,35.247-14.416,35.247l14.416,0.803c0,0,21.63,59.269,30.438,71.28
		c8.812,12.02,3.203,24.039,3.203,24.039s10.414-8.013,31.241,5.604c20.827,13.617,67.287,24.825,67.287,24.825v12.823
		c0,0,36.046-9.611,51.26-37.648c15.219-28.037,15.219-36.844,15.219-36.844l-60.875,8.004l-4.801,12.02
		c0,0-20.024,5.613-36.05-7.21c-16.018-12.814,0.803-24.834,0.803-24.834l102.534-110.534l105.72,112.943
		c0,0,12.832,17.615-12.011,26.431c-24.825,8.816-28.84,3.998-28.84,3.998l-6.407-12.814l-58.462-7.21
		c0,0,9.606,34.444,28.836,52.077c19.221,17.615,37.639,22.416,37.639,22.416l0.803-12.814c0,0,60.875-20.024,71.298-28.037
		c10.405-8.004,27.234-2.392,27.234-2.392s-9.619-10.422,7.996-34.444c17.632-24.039,25.646-62.481,25.646-62.481l13.617,0.803
		c0,0-8.816-39.254-40.851-57.681c-32.052-18.418-28.84-12.814-28.84-12.814l3.998,59.278l11.225,6.407
		c0,0,1.589,26.44-11.225,38.451c-12.814,12.011-20.827-0.803-20.827-0.803l-106.527-109.74l76.902-77.696
		c0,0,38.442,34.444,52.059,38.451c13.617,3.998,12.011,0.803,12.011,0.803l10.422,8.004l3.998,0.803l12.814,8.004l14.42-15.214
		l-8.807-13.617l0.794-3.204l-11.208-10.414c0,0,2.4-4.81-7.21-20.024s-48.061-49.659-48.061-49.659s-47.258-44.858-58.466-49.667
		c-11.225-4.801-16.026-3.204-16.026-3.204l-12.011-12.02l-2.409-0.794l-12.814-7.21l-15.223,13.617l8.816,12.814l-0.803,4.006
		l12.814,15.223l-3.998,2.4c0,0,13.617,18.427,25.628,32.838c12.011,14.42,21.63,24.031,21.63,24.031l-76.099,79.302l-68.085-77.696
		c0,0,34.444-40.048,40.048-48.864c5.608-8.816,2.405-12.011,2.405-12.011l12.015-15.223v-3.203l7.21-12.814L568.883,2097.059z"/>
	<path id="path3497" fill="#F1F1F1" d="M440.328,2097.862c-23.673,0-42.872,19.168-42.872,42.841s19.199,42.876,42.872,42.876
		c23.673,0,42.846-19.204,42.846-42.876S464.001,2097.862,440.328,2097.862z M440.328,2113.016
		c15.293,0,27.688,12.404,27.688,27.688c0,15.293-12.395,27.688-27.688,27.688c-15.289,0-27.684-12.395-27.684-27.688
		C412.644,2125.419,425.039,2113.016,440.328,2113.016z"/>
	<path id="path4270" fill="#F1F1F1" d="M745.516,2096.265c-23.673,0-42.876,19.169-42.876,42.842s19.204,42.876,42.876,42.876
		c23.673,0,42.841-19.204,42.841-42.876S769.189,2096.265,745.516,2096.265z M745.516,2111.418
		c15.284,0,27.688,12.395,27.688,27.688c0,15.293-12.404,27.688-27.688,27.688c-15.293,0-27.688-12.395-27.688-27.688
		C717.828,2123.813,730.223,2111.418,745.516,2111.418z"/>
</g>
<g id="g4366" transform="translate(-289.41113,-361.61476)">
	
		<linearGradient id="path4338_1_" gradientUnits="userSpaceOnUse" x1="920.0986" y1="1105.8872" x2="916.0125" y2="1113.8094" gradientTransform="matrix(1 0 0 1 -578.8223 -390.9999)">
		<stop  offset="0" style="stop-color:#EC0000"/>
		<stop  offset="1" style="stop-color:#680000;stop-opacity:0"/>
	</linearGradient>
	<path id="path4338" fill="url(#path4338_1_)" d="M295.561,685.828v18.195l88.99,44.66v-17.864L295.561,685.828z"/>
	
		<linearGradient id="path4362_1_" gradientUnits="userSpaceOnUse" x1="-282.1797" y1="1105.8882" x2="-286.2657" y2="1113.8102" gradientTransform="matrix(-1 0 0 1 145.6445 -390.9999)">
		<stop  offset="0" style="stop-color:#EC0000"/>
		<stop  offset="1" style="stop-color:#680000;stop-opacity:0"/>
	</linearGradient>
	<path id="path4362" fill="url(#path4362_1_)" d="M473.541,685.828v18.195l-88.99,44.66v-17.864L473.541,685.828z"/>
</g>
<path id="path3050-9-5" fill="#F1F1F1" d="M134.399,219.772c0,0,4.479-2.808,4.391-4.088c0.035-0.906-0.764-1.377-0.764-1.377
	s5.211-3.607,5.231-4.889c0.04-1.027-0.667-1.413-0.667-1.413c3.089-2.156,5.77-4.488,6.645-8.334c0,0-7.613,0.148-23.177,9.974
	c-21.454,13.543-15.489,18.616-15.489,18.616s5.063,5.063,1.937,9.085c-3.128,4.021-6.853,4.021-6.853,4.021
	s-0.058-4.264-1.606-5.109c-1.55-0.845,1.725-12.697-1.968-17.083c-2.266-2.692-3.573-3.573-10.127-2.979
	c-6.553,0.597-9.979,3.576-9.979,3.576s-1.49,1.936-0.894,3.573s2.085-0.149,2.085-0.149s1.787,1.043,4.319,1.49
	c0,0,6.281,1.713-1.044,7.487c-7.324,5.774-5.659,8.151-5.659,8.151s-7.447-4.768-2.532-12.064s-25.021-24.127-25.021-24.127
	s-5.809-3.127-8.49-3.574c-2.681-0.447-5.809-1.191-5.809-1.191l0,0c0,0,2.085,5.213,4.17,7c2.085,1.786,3.276,2.383,3.276,2.383
	s-0.737,0.771-0.616,1.501c-0.083,0.9,5.425,4.377,5.425,4.377s-1.043,0.547-0.944,1.521c0.051,1.324,3.583,3.323,3.583,3.323
	s-1.84,1.112-1.797,2.632c0.048,1.731,1.797,3.051,1.797,3.051s-2.132,1.567-1.709,3.017c0.341,1.571,2.156,1.728,2.156,1.728
	s-2.124,1.183-1.657,2.828c0.492,1.495,2.401,1.192,2.401,1.192s-2.159,1.743-1.405,3.319c0.737,1.541,3.043,0.851,3.043,0.851
	s-2.209,2.321-1.361,3.681c0.723,1.159,2.404,0.639,2.404,0.639s-1.365,1.562-0.425,2.851c0.891,1.222,2.841,1.421,2.841,1.421
	s-1.221,2.014-0.179,2.906s2.83,0.291,2.83,0.291s-0.779,2.408,0.412,3.451c1.191,1.043,2.996-0.061,2.996-0.061
	s-0.379,2.168,0.812,3.062c1.069,0.853,3.144-0.562,3.144-0.562s0.246,2.498,1.15,3.098c0.757,0.502,2.783-0.537,2.783-0.537
	s0.158,1.891,1.498,2.635c1.34,0.51,2.384-0.68,2.384-0.68s0.273,1.916,1.614,2.361c1.34,0.447,2.607-0.887,2.607-0.887
	l-0.189,11.184H70.264v6.852h12.603c0,0-0.586,1.889,0.089,2.546c0.536,0.521,2.13-0.134,2.13-0.134s-0.626,1.463,0.104,2.145
	c0.67,0.627,2.234-0.312,2.234-0.312s-0.462,1.757,0.521,2.219c1.028,0.552,2.13-0.819,2.13-0.819s-0.313,2.146,1.027,2.592
	c1.34,0.445,2.428-1.938,2.428-1.938s0.595,2.518,1.787,2.518c1.191,0,1.861-2.547,1.861-2.547s1.103,2.291,2.295,1.848
	c1.326-0.492,1.176-2.354,1.176-2.354s1.535,1.594,2.339,1.103c0.764-0.466,0.565-2.548,0.565-2.548s1.532,1.026,2.354,0.552
	c0.815-0.472,0.282-2.519,0.282-2.519s1.623,0.521,2.22-0.223c0.596-0.744,0.373-2.129,0.373-2.129h11.914v-6.829h-11.318
	l-0.059-10.319c0,0,1.395-0.228,2.311-0.998c0.921-0.654,1.322-2.619,1.322-2.619s1.44,1.074,2.5,0.453
	c1.11-0.649,1.01-2.476,1.01-2.476s2.391,1.163,3.177,0.323c0.79-0.844,0.616-2.855,0.567-2.876c0,0,2.188,1.3,3.147,0.298
	c1.231-0.867,1.009-2.984,1.009-2.984s2.008,0.984,2.807-0.117c0.965-0.694,0.691-2.562,0.691-2.562s1.668,0.519,2.452-0.474
	c0.749-0.947-0.131-3.161-0.131-3.161s2.072-0.19,2.496-1.325c0.458-1.227-1.11-2.541-1.11-2.541s2.16-0.068,2.473-1.488
	c0.287-1.318-1.412-2.22-1.412-2.22s2.205-0.24,2.367-1.755c0.15-1.412-1.508-2.385-1.508-2.385s2.012-0.596,2.17-2.012
	c0.172-1.541-1.502-2.266-1.502-2.266s1.445-0.572,1.78-1.902c0.304-1.203-1.537-2.443-1.537-2.443s1.744-1.383,1.744-2.909
	C136.143,220.681,134.399,219.772,134.399,219.772L134.399,219.772z"/>
<g id="q7Y49E.tif">
	
		<image overflow="visible" enable-background="new    " width="600" height="474" id="Layer_0" xlink:href="870495B6.png"  transform="matrix(0.3161 0 0 0.3161 0.1762 8.5762)">
	</image>
</g>
</svg>
