<?xml version="1.0" encoding="utf-8"?>
<!-- Generator: Adobe Illustrator 15.0.0, SVG Export Plug-In . SVG Version: 6.00 Build 0)  -->
<!DOCTYPE svg PUBLIC "-//W3C//DTD SVG 1.1//EN" "http://www.w3.org/Graphics/SVG/1.1/DTD/svg11.dtd">
<svg version="1.1"
	 id="svg2" xmlns:svg="http://www.w3.org/2000/svg" xmlns:rdf="http://www.w3.org/1999/02/22-rdf-syntax-ns#" xmlns:cc="http://creativecommons.org/ns#" xmlns:dc="http://purl.org/dc/elements/1.1/"
	 xmlns="http://www.w3.org/2000/svg" xmlns:xlink="http://www.w3.org/1999/xlink" x="0px" y="0px" width="190px" height="622px"
	 viewBox="0 0 190 622" enable-background="new 0 0 190 622" xml:space="preserve">
<path id="path3050" fill="#040464" d="M189.929,273.209H0.71v297.344l94.593,47.562l94.595-47.562L189.929,273.209z"/>
<path id="path3227" fill="#999D00" d="M95.304,402.928c-60.799-0.173-89,49.969-89,49.969v9.781v18.188l89,44.655l89-44.655v-18.188
	v-9.781C184.304,452.896,156.103,402.755,95.304,402.928z M95.304,421.084c40.805,0,67.602,28.314,80.344,45.969l-80.344,40.594
	l-80.344-40.594C27.693,449.398,54.5,421.084,95.304,421.084z"/>
<g id="g4272" transform="matrix(0.1118772,0,0,0.1118772,29.059692,112.24711)">
	<path id="path3495" fill="#F1F1F1" d="M570.489,2912.229l-11.217,9.619l-3.204-1.606l-12.814,12.814c0,0-7.21-3.998-32.843,16.829
		c-25.632,20.819-69.687,63.276-69.687,63.276s-33.641,35.239-28.836,44.858l-8.009,7.21l-2.405,8.004l-8.009,9.611l15.219,15.223
		l12.015-7.21l4.805,0.803l9.61-8.816c0,0,16.022,3.212,38.451-16.821c22.429-20.024,25.632-24.031,25.632-24.031l73.694,75.296
		l-99.326,104.135c0,0-16.821,24.022-30.438,7.21c-13.617-16.829-9.615-37.656-9.615-37.656l12.015-5.604l2.405-60.875
		c0,0-40.851,17.624-55.271,35.247c-14.416,17.615-14.416,35.247-14.416,35.247l14.416,0.794c0,0,21.63,59.278,30.438,71.289
		c8.812,12.011,3.208,24.031,3.208,24.031s10.409-8.004,31.236,5.613s67.287,24.825,67.287,24.825v12.814
		c0,0,36.042-9.61,51.256-37.639c15.223-28.037,15.223-36.853,15.223-36.853l-60.875,8.013l-4.805,12.011
		c0,0-20.024,5.604-36.046-7.21c-16.017-12.814,0.803-24.825,0.803-24.825l102.53-110.542l105.724,112.943
		c0,0,12.823,17.624-12.011,26.44c-24.825,8.799-28.84,3.998-28.84,3.998l-6.407-12.814l-58.466-7.21c0,0,9.611,34.444,28.84,52.059
		c19.221,17.632,37.639,22.433,37.639,22.433l0.803-12.814c0,0,60.875-20.024,71.289-28.037c10.414-8.013,27.234-2.401,27.234-2.401
		s-9.611-10.414,8.004-34.444c17.632-24.031,25.637-62.473,25.637-62.473l13.617,0.794c0,0-8.807-39.254-40.851-57.672
		s-28.832-12.814-28.832-12.814l3.998,59.269l11.217,6.407c0,0,1.597,26.431-11.217,38.451c-12.814,12.02-20.827-0.794-20.827-0.794
		l-106.527-109.74l76.901-77.705c0,0,38.442,34.444,52.059,38.451c13.617,4.006,12.011,0.803,12.011,0.803l10.422,8.004l3.998,0.803
		l12.814,8.013l14.42-15.223l-8.807-13.617l0.794-3.195l-11.208-10.422c0,0,2.4-4.801-7.21-20.024
		c-9.611-15.214-48.061-49.659-48.061-49.659s-47.258-44.858-58.466-49.659c-11.225-4.81-16.026-3.212-16.026-3.212l-12.011-12.011
		l-2.409-0.803l-12.814-7.21l-15.223,13.617l8.816,12.814l-0.803,4.015l12.814,15.214l-3.998,2.401c0,0,13.617,18.427,25.628,32.838
		c12.011,14.42,21.63,24.04,21.63,24.04l-76.098,79.293l-68.085-77.696c0,0,34.444-40.048,40.048-48.855
		c5.608-8.816,2.405-12.02,2.405-12.02l12.015-15.214v-3.212l7.21-12.814L570.489,2912.229z"/>
	<path id="path3497" fill="#F1F1F1" d="M441.934,2913.033c-23.673,0-42.872,19.168-42.872,42.841s19.199,42.876,42.872,42.876
		c23.673,0,42.846-19.204,42.846-42.876S465.607,2913.033,441.934,2913.033z M441.934,2928.186
		c15.293,0,27.688,12.404,27.688,27.688c0,15.293-12.395,27.688-27.688,27.688c-15.289,0-27.684-12.395-27.684-27.688
		C414.25,2940.59,426.645,2928.186,441.934,2928.186z"/>
	<path id="path4270" fill="#F1F1F1" d="M747.122,2911.435c-23.673,0-42.876,19.169-42.876,42.842
		c0,23.673,19.204,42.876,42.876,42.876c23.673,0,42.842-19.203,42.842-42.876C789.964,2930.604,770.795,2911.435,747.122,2911.435z
		 M747.122,2926.589c15.284,0,27.688,12.404,27.688,27.688c0,15.284-12.404,27.688-27.688,27.688
		c-15.293,0-27.688-12.404-27.688-27.688C719.434,2938.992,731.829,2926.589,747.122,2926.589z"/>
</g>
<g id="g4366" transform="translate(-289.42676,-314.35751)">
	
		<linearGradient id="path4338_1_" gradientUnits="userSpaceOnUse" x1="920.3105" y1="1072.088" x2="916.2249" y2="1080.0094" gradientTransform="matrix(1 0 0 1 -578.8535 -266)">
		<stop  offset="0" style="stop-color:#F9F900"/>
		<stop  offset="1" style="stop-color:#999D00;stop-opacity:0"/>
	</linearGradient>
	<path id="path4338" fill="url(#path4338_1_)" d="M295.74,777.027v18.193l88.99,44.661v-17.864L295.74,777.027z"/>
	
		<linearGradient id="path4362_1_" gradientUnits="userSpaceOnUse" x1="-282.3282" y1="1072.0861" x2="-286.4139" y2="1080.0076" gradientTransform="matrix(-1 0 0 1 145.6757 -266)">
		<stop  offset="0" style="stop-color:#F9F900"/>
		<stop  offset="1" style="stop-color:#999D00;stop-opacity:0"/>
	</linearGradient>
	<path id="path4362" fill="url(#path4362_1_)" d="M473.721,777.027v18.193l-88.99,44.661v-17.864L473.721,777.027z"/>
</g>
<path id="path3163" fill="#999D00" d="M5.837,501.832v18.188l89,44.656l89-44.656v-18.188l-89,44.969L5.837,501.832z"/>
<g id="g3165" transform="translate(-289.89285,-275.20497)">
	
		<linearGradient id="path3167_1_" gradientUnits="userSpaceOnUse" x1="921.2434" y1="1072.0878" x2="917.1572" y2="1080.0101" gradientTransform="matrix(1 0 0 1 -579.7861 -266)">
		<stop  offset="0" style="stop-color:#F9F900"/>
		<stop  offset="1" style="stop-color:#999D00;stop-opacity:0"/>
	</linearGradient>
	<path id="path3167" fill="url(#path3167_1_)" d="M295.74,777.027v18.195l88.989,44.66v-17.865L295.74,777.027z"/>
	
		<linearGradient id="path3169_1_" gradientUnits="userSpaceOnUse" x1="-281.3953" y1="1072.0858" x2="-285.4819" y2="1080.0092" gradientTransform="matrix(-1 0 0 1 146.6079 -266)">
		<stop  offset="0" style="stop-color:#F9F900"/>
		<stop  offset="1" style="stop-color:#999D00;stop-opacity:0"/>
	</linearGradient>
	<path id="path3169" fill="url(#path3169_1_)" d="M473.72,777.027v18.195l-88.99,44.66v-17.865L473.72,777.027z"/>
</g>
<path id="path3215" fill="#999D00" d="M5.837,541.629v18.188l89,44.656l89-44.656v-18.188l-89,44.969L5.837,541.629z"/>
<g id="g4006" transform="translate(-0.015625,46.265625)">
	
		<linearGradient id="path3219_1_" gradientUnits="userSpaceOnUse" x1="341.4873" y1="1072.0879" x2="337.4017" y2="1080.0092" gradientTransform="matrix(1 0 0 1 -289.9087 -547.6738)">
		<stop  offset="0" style="stop-color:#F9F900"/>
		<stop  offset="1" style="stop-color:#999D00;stop-opacity:0"/>
	</linearGradient>
	<path id="path3219" fill="url(#path3219_1_)" d="M5.863,495.352v18.195l88.99,44.66v-17.864L5.863,495.352z"/>
	
		<linearGradient id="path3221_1_" gradientUnits="userSpaceOnUse" x1="-861.1499" y1="1072.0859" x2="-865.2357" y2="1080.0076" gradientTransform="matrix(-1 0 0 1 -723.0235 -547.6738)">
		<stop  offset="0" style="stop-color:#F9F900"/>
		<stop  offset="1" style="stop-color:#999D00;stop-opacity:0"/>
	</linearGradient>
	<path id="path3221" fill="url(#path3221_1_)" d="M183.843,495.352v18.195l-88.99,44.66v-17.864L183.843,495.352z"/>
</g>
<path id="path8132" fill="#F1F1F1" d="M108.167,282.967l-4.832,14.793l12.453,9.333l-15.562-0.025l-5.028,14.729l-4.786-14.809
	l-15.561-0.23l12.605-9.127l-4.59-14.872l12.576,9.168L108.167,282.967z"/>
<path id="path3050-9-5" fill="#F1F1F1" d="M134.563,358.229c0,0,4.477-2.809,4.39-4.088c0.036-0.906-0.763-1.377-0.763-1.377
	s5.211-3.606,5.23-4.889c0.041-1.027-0.666-1.413-0.666-1.413c3.088-2.157,5.77-4.838,6.645-8.684c0,0-7.614,0.497-23.178,10.321
	c-21.453,13.543-15.489,18.619-15.489,18.619s5.063,5.062,1.937,9.084s-6.852,4.021-6.852,4.021s-0.059-4.264-1.607-5.109
	c-1.548-0.845,1.726-12.697-1.967-17.083c-2.266-2.692-3.574-3.575-10.128-2.979c-6.554,0.596-9.979,3.575-9.979,3.575
	s-1.49,1.936-0.894,3.574c0.596,1.639,2.085-0.148,2.085-0.148s1.787,1.042,4.319,1.488c0,0,6.28,1.713-1.044,7.488
	s-5.658,8.151-5.658,8.151s-7.447-4.767-2.532-12.063c4.915-7.299-25.022-24.129-25.022-24.129s-5.809-3.128-8.489-3.574
	c-2.681-0.447-5.809-1.191-5.809-1.191l0,0c0,0,2.085,5.213,4.17,7s3.277,2.383,3.277,2.383s-0.737,0.77-0.617,1.501
	c-0.083,0.901,5.425,4.377,5.425,4.377s-1.044,0.547-0.944,1.521c0.05,1.326,3.582,3.324,3.582,3.324s-1.838,1.112-1.796,2.633
	c0.048,1.729,1.797,3.049,1.797,3.049s-2.132,1.568-1.709,3.017c0.341,1.571,2.156,1.728,2.156,1.728s-2.123,1.183-1.657,2.828
	c0.492,1.496,2.401,1.192,2.401,1.192s-2.158,1.743-1.405,3.319c0.737,1.542,3.044,0.851,3.044,0.851s-2.209,2.321-1.361,3.681
	c0.723,1.16,2.404,0.64,2.404,0.64s-1.365,1.562-0.425,2.851c0.891,1.221,2.841,1.42,2.841,1.42s-1.221,2.014-0.179,2.906
	c1.042,0.895,2.83,0.291,2.83,0.291s-0.78,2.408,0.412,3.45c1.191,1.043,2.996-0.06,2.996-0.06s-0.379,2.166,0.812,3.061
	c1.069,0.854,3.144-0.562,3.144-0.562s0.247,2.5,1.15,3.099c0.757,0.502,2.783-0.538,2.783-0.538s0.158,1.891,1.498,2.635
	c1.34,0.51,2.384-0.68,2.384-0.68s0.274,1.916,1.614,2.361c1.34,0.446,2.607-0.886,2.607-0.886l-0.19,11.185H70.427v6.852h12.602
	c0,0-0.586,1.891,0.089,2.546c0.536,0.521,2.131-0.134,2.131-0.134s-0.626,1.463,0.104,2.145c0.67,0.627,2.234-0.312,2.234-0.312
	s-0.462,1.758,0.521,2.219c1.028,0.552,2.13-0.819,2.13-0.819s-0.313,2.146,1.027,2.593c1.341,0.446,2.428-1.937,2.428-1.937
	s0.597,2.518,1.787,2.518c1.192,0,1.862-2.547,1.862-2.547s1.102,2.289,2.295,1.847c1.324-0.492,1.176-2.353,1.176-2.353
	s1.533,1.594,2.338,1.102c0.764-0.466,0.566-2.547,0.566-2.547s1.531,1.025,2.354,0.55c0.816-0.472,0.282-2.519,0.282-2.519
	s1.624,0.521,2.22-0.223s0.372-2.129,0.372-2.129h11.915v-6.829h-11.318l-0.059-10.319c0,0,1.395-0.228,2.311-0.998
	c0.92-0.654,1.322-2.619,1.322-2.619s1.441,1.074,2.501,0.453c1.11-0.649,1.009-2.476,1.009-2.476s2.391,1.163,3.178,0.323
	c0.789-0.844,0.615-2.855,0.566-2.876c0,0,2.188,1.3,3.148,0.298c1.232-0.867,1.007-2.984,1.007-2.984s2.009,0.985,2.81-0.117
	c0.963-0.694,0.689-2.562,0.689-2.562s1.668,0.519,2.453-0.474c0.748-0.947-0.131-3.16-0.131-3.16s2.072-0.189,2.496-1.325
	c0.457-1.228-1.112-2.541-1.112-2.541s2.161-0.069,2.473-1.487c0.288-1.318-1.411-2.221-1.411-2.221s2.205-0.24,2.367-1.755
	c0.15-1.412-1.508-2.385-1.508-2.385s2.012-0.595,2.17-2.013c0.171-1.541-1.503-2.266-1.503-2.266s1.446-0.572,1.78-1.902
	c0.304-1.203-1.535-2.443-1.535-2.443s1.742-1.383,1.742-2.909S134.563,358.229,134.563,358.229L134.563,358.229z"/>
<g id="ycLoZV.tif">
	
		<image overflow="visible" enable-background="new    " width="429" height="589" id="Layer_0" xlink:href="C138BDAF.png"  transform="matrix(0.4284 0 0 0.4284 6.2373 3.8848)">
	</image>
</g>
</svg>
