<?xml version="1.0" encoding="UTF-8" standalone="no"?>
<!-- Created with Inkscape (http://www.inkscape.org/) -->

<svg
   xmlns:dc="http://purl.org/dc/elements/1.1/"
   xmlns:cc="http://creativecommons.org/ns#"
   xmlns:rdf="http://www.w3.org/1999/02/22-rdf-syntax-ns#"
   xmlns:svg="http://www.w3.org/2000/svg"
   xmlns="http://www.w3.org/2000/svg"
   xmlns:xlink="http://www.w3.org/1999/xlink"
   version="1.1"
   width="190"
   height="260"
   id="svg2">
  <defs
     id="defs4">
    <linearGradient
       id="linearGradient4346">
      <stop
         id="stop4348"
         style="stop-color:#ec0000;stop-opacity:1"
         offset="0" />
      <stop
         id="stop4350"
         style="stop-color:#680000;stop-opacity:0"
         offset="1" />
    </linearGradient>
    <linearGradient
       x1="343.83673"
       y1="534.31787"
       x2="339.75073"
       y2="542.23987"
       id="linearGradient3212"
       xlink:href="#linearGradient4346"
       gradientUnits="userSpaceOnUse" />
    <linearGradient
       x1="343.83673"
       y1="534.31787"
       x2="339.75073"
       y2="542.23987"
       id="linearGradient3214"
       xlink:href="#linearGradient4346"
       gradientUnits="userSpaceOnUse"
       gradientTransform="matrix(-1,0,0,1,768.82225,0)" />
    <linearGradient
       x1="343.83673"
       y1="534.31787"
       x2="339.75073"
       y2="542.23987"
       id="linearGradient3216"
       xlink:href="#linearGradient4346"
       gradientUnits="userSpaceOnUse" />
    <linearGradient
       x1="343.83673"
       y1="534.31787"
       x2="339.75073"
       y2="542.23987"
       id="linearGradient3218"
       xlink:href="#linearGradient4346"
       gradientUnits="userSpaceOnUse"
       gradientTransform="matrix(-1,0,0,1,768.82225,0)" />
    <linearGradient
       x1="343.83673"
       y1="534.31787"
       x2="339.75073"
       y2="542.23987"
       id="linearGradient4408"
       xlink:href="#linearGradient4346-3"
       gradientUnits="userSpaceOnUse"
       gradientTransform="matrix(-1,0,0,1,768.82225,0)" />
    <linearGradient
       x1="343.83673"
       y1="534.31787"
       x2="339.75073"
       y2="542.23987"
       id="linearGradient4406"
       xlink:href="#linearGradient4346-3"
       gradientUnits="userSpaceOnUse" />
    <linearGradient
       id="linearGradient4346-3">
      <stop
         id="stop4348-9"
         style="stop-color:#ec0000;stop-opacity:1"
         offset="0" />
      <stop
         id="stop4350-9"
         style="stop-color:#680000;stop-opacity:0"
         offset="1" />
    </linearGradient>
  </defs>
  <metadata
     id="metadata7">
    <rdf:RDF>
      <cc:Work
         rdf:about="">
        <dc:format>image/svg+xml</dc:format>
        <dc:type
           rdf:resource="http://purl.org/dc/dcmitype/StillImage" />
        <dc:title></dc:title>
      </cc:Work>
    </rdf:RDF>
  </metadata>
  <path
     d="m 0.390625,1.217935 0,210.092755 94.59375,47.47137 94.624995,-47.47126 0,-210.092865 -94.624995,0 z"
     id="path3050"
     style="fill:#040464;fill-opacity:1;stroke:none" />
  <g
     transform="matrix(0.1118772,0,0,0.1118772,29.075315,65.879685)"
     id="g4272"
     style="fill:#f1f1f1;fill-opacity:1">
    <path
       d="m 201.05131,95.479349 -11.21401,9.612011 -3.20401,-1.602 -12.81602,12.81602 c 0,0 -7.20901,-4.005 -32.84105,16.82103 -25.63204,20.82603 -69.687109,63.2791 -69.687109,63.2791 0,0 -33.642052,35.24405 -28.836045,44.85607 l -8.010012,7.20901 -2.403004,8.01001 -8.010012,9.61202 15.219023,15.21902 12.015019,-7.20901 4.806008,0.801 9.612015,-8.81101 c 0,0 16.020025,3.204 38.448057,-16.82103 22.42804,-20.02503 25.63204,-24.03004 25.63204,-24.03004 l 73.69212,75.29412 -99.32416,104.13016 c 0,0 -16.821024,24.03004 -30.438045,7.20901 C 60.075094,395.05382 64.0801,374.22778 64.0801,374.22778 l 12.015019,-5.607 2.403004,-60.8761 c 0,0 -40.851064,17.62203 -55.269087,35.24406 C 8.8110138,360.61076 8.8110138,378.23279 8.8110138,378.23279 l 14.4180222,0.801 c 0,0 21.627034,59.27409 30.438048,71.28911 8.811014,12.01502 3.204005,24.03004 3.204005,24.03004 0,0 10.413016,-8.01001 31.239049,5.60701 20.826032,13.61702 67.284102,24.83104 67.284102,24.83104 l 0,12.81602 c 0,0 36.04506,-9.61202 51.26408,-37.64706 15.21903,-28.03504 15.21903,-36.84606 15.21903,-36.84606 l -60.8761,8.01001 -4.80601,12.01502 c 0,0 -20.02503,5.60701 -36.04505,-7.20901 -16.02003,-12.81602 0.801,-24.83104 0.801,-24.83104 L 223.47935,320.5607 329.21151,433.50188 c 0,0 12.81602,17.62202 -12.01501,26.43304 -24.83104,8.81101 -28.83605,4.005 -28.83605,4.005 l -6.40801,-12.81602 -58.47309,-7.20901 c 0,0 9.61201,34.44306 28.83604,52.06508 19.22403,17.62203 37.64706,22.42804 37.64706,22.42804 l 0.801,-12.81602 c 0,0 60.8761,-20.02503 71.28912,-28.03504 10.41301,-8.01002 27.23404,-2.40301 27.23404,-2.40301 0,0 -9.61202,-10.41301 8.01001,-34.44305 17.62203,-24.03004 25.63204,-62.4781 25.63204,-62.4781 l 13.61702,0.801 c 0,0 -8.81101,-39.24906 -40.85106,-57.67209 -32.04005,-18.42303 -28.83605,-12.81602 -28.83605,-12.81602 l 4.00501,59.27409 11.21402,6.40801 c 0,0 1.602,26.43305 -11.21402,38.44806 -12.81602,12.01502 -20.82603,-0.801 -20.82603,-0.801 L 243.50438,302.13767 320.4005,224.44055 c 0,0 38.44806,34.44305 52.06508,38.44806 13.61702,4.00501 12.01502,0.801 12.01502,0.801 l 10.41302,8.01001 4.005,0.80101 12.81602,8.01001 14.41803,-15.21903 -8.81102,-13.61702 0.801,-3.204 -11.21401,-10.41302 c 0,0 2.403,-4.80601 -7.20902,-20.02503 -9.61201,-15.21902 -48.06007,-49.66208 -48.06007,-49.66208 0,0 -47.25907,-44.85607 -58.47309,-49.66207 -11.21402,-4.80601 -16.02003,-3.20401 -16.02003,-3.20401 l -12.01502,-12.01502 -2.403,-0.801 -12.81602,-7.209011 -15.21902,13.617021 8.81101,12.81602 -0.801,4.00501 12.81602,15.21902 -4.00501,2.403 c 0,0 13.61702,18.42303 25.63204,32.84106 12.01502,14.41802 21.62704,24.03003 21.62704,24.03003 l -76.09512,79.29913 -68.08511,-77.69712 c 0,0 34.44306,-40.05007 40.05006,-48.86108 5.60701,-8.81101 2.40301,-12.01502 2.40301,-12.01502 l 12.01502,-15.21902 0,-3.20401 7.20901,-12.81602 z"
       transform="translate(366.581,375.124)"
       id="path3495"
       style="fill:#f1f1f1;fill-opacity:1;stroke:none" />
    <path
       d="m 72.5,96.28125 c -23.672713,0 -42.875,19.17104 -42.875,42.84375 0,23.67271 19.202287,42.875 42.875,42.875 23.672713,0 42.84375,-19.20229 42.84375,-42.875 0,-23.67271 -19.171037,-42.84375 -42.84375,-42.84375 z m 0,15.15625 c 15.290033,0 27.6875,12.39747 27.6875,27.6875 0,15.29003 -12.397467,27.6875 -27.6875,27.6875 -15.290033,0 -27.6875,-12.39747 -27.6875,-27.6875 0,-15.29003 12.397467,-27.6875 27.6875,-27.6875 z"
       transform="translate(366.581,375.124)"
       id="path3497"
       style="fill:#f1f1f1;fill-opacity:1;stroke:none" />
    <path
       d="m 744.26248,469.80325 c -23.67272,0 -42.875,19.17104 -42.875,42.84375 0,23.67271 19.20228,42.875 42.875,42.875 23.67271,0 42.84375,-19.20229 42.84375,-42.875 0,-23.67271 -19.17104,-42.84375 -42.84375,-42.84375 z m 0,15.15625 c 15.29003,0 27.6875,12.39747 27.6875,27.6875 0,15.29003 -12.39747,27.6875 -27.6875,27.6875 -15.29004,0 -27.6875,-12.39747 -27.6875,-27.6875 0,-15.29003 12.39746,-27.6875 27.6875,-27.6875 z"
       id="path4270"
       style="fill:#f1f1f1;fill-opacity:1;stroke:none" />
  </g>
  <path
     d="m 6.000005,143.15004 0,18.1875 89,44.65629 L 184,161.33754 l 0,-18.1875 -88.999995,44.96879 -89,-44.96879 z"
     id="path4340"
     style="fill:#680000;fill-opacity:1;stroke:none" />
  <g
     transform="translate(-289.41113,-360.72495)"
     id="g4366">
    <path
       d="m 295.42104,503.86488 0,18.19503 88.99021,44.66052 0,-17.86421 z"
       id="path4338"
       style="fill:url(#linearGradient3212);fill-opacity:1;stroke:none" />
    <path
       d="m 473.40121,503.86488 0,18.19503 -88.99021,44.66052 0,-17.86421 z"
       id="path4362"
       style="fill:url(#linearGradient3214);fill-opacity:1;stroke:none" />
  </g>
  <path
     d="m 5.5339033,182.30258 0,18.1875 88.9999997,44.65628 88.999997,-44.65628 0,-18.1875 -88.999997,44.96878 -88.9999997,-44.96878 z"
     id="path3163"
     style="fill:#680000;fill-opacity:1;stroke:none" />
  <g
     transform="translate(-289.87722,-321.57241)"
     id="g3165">
    <path
       d="m 295.42104,503.86488 0,18.19503 88.99021,44.66052 0,-17.86421 z"
       id="path3167"
       style="fill:url(#linearGradient3216);fill-opacity:1;stroke:none" />
    <path
       d="m 473.40121,503.86488 0,18.19503 -88.99021,44.66052 0,-17.86421 z"
       id="path3169"
       style="fill:url(#linearGradient3218);fill-opacity:1;stroke:none" />
  </g>
  <path
     d="m 134.2596,38.698885 c 0,0 4.47781,-2.80743 4.39036,-4.087759 0.0362,-0.906445 -0.76312,-1.376726 -0.76312,-1.376726 0,0 5.21131,-3.607327 5.23134,-4.888928 0.0402,-1.027185 -0.6669,-1.412846 -0.6669,-1.412846 3.08876,-2.156551 5.76968,-4.488626 6.64445,-8.334795 0,0 -7.61396,0.148428 -23.17678,9.973191 -21.45358,13.543589 -15.48974,18.617494 -15.48974,18.617494 0,0 5.06395,5.06385 1.93621,9.085263 -3.12773,4.021413 -6.85123,4.021413 -6.85123,4.021413 0,0 -0.0581,-4.263676 -1.6075,-5.108805 -1.5494,-0.845128 1.7243,-12.698039 -1.96704,-17.083297 -2.26615,-2.692151 -3.57456,-3.574444 -10.12791,-2.978812 -6.55335,0.595795 -9.97897,3.574607 -9.97897,3.574607 0,0 -1.48941,1.936212 -0.89365,3.574608 0.59577,1.638232 2.08516,-0.14899 2.08516,-0.14899 0,0 1.78728,1.0426 4.31926,1.489406 0,0 6.28075,1.71265 -1.04369,7.487692 -7.32445,5.775043 -5.65861,8.150991 -5.65861,8.150991 0,0 -7.447,-4.766198 -2.53197,-12.064239 C 83.02428,39.890312 53.08736,23.06017 53.08736,23.06017 c 0,0 -5.80865,-3.127753 -8.48957,-3.574559 -2.68091,-0.446838 -5.80866,-1.191525 -5.80866,-1.191525 l -1.3e-4,-2.01e-4 c 0,0 2.08517,5.212905 4.17032,7.000176 2.08517,1.787222 3.27668,2.383017 3.27668,2.383017 0,0 -0.73692,0.769344 -0.61634,1.500905 -0.0831,0.901104 5.42496,4.377149 5.42496,4.377149 0,0 -1.04359,0.546818 -0.94384,1.521372 0.0504,1.32478 3.58222,3.324233 3.58222,3.324233 0,0 -1.83955,1.112206 -1.79734,2.632526 0.0481,1.730703 1.79734,3.049549 1.79734,3.049549 0,0 -2.13225,1.567831 -1.70961,3.016469 0.34094,1.570942 2.15643,1.727299 2.15643,1.727299 0,0 -2.12325,1.183077 -1.65667,2.829004 0.49154,1.495136 2.40137,1.192409 2.40137,1.192409 0,0 -2.15855,1.742852 -1.40527,3.31936 0.7369,1.542126 3.0436,0.850879 3.0436,0.850879 0,0 -2.20929,2.321293 -1.36114,3.680701 0.72335,1.1595 2.40373,0.638527 2.40373,0.638527 0,0 -1.36483,1.561773 -0.42479,2.850616 0.89071,1.221225 2.84146,1.420592 2.84146,1.420592 0,0 -1.2213,2.012613 -0.17874,2.906388 1.04259,0.893611 2.82988,0.290597 2.82988,0.290597 0,0 -0.77974,2.407976 0.41183,3.450577 1.19151,1.042601 2.99562,-0.0601 2.99562,-0.0601 0,0 -0.37954,2.166933 0.81204,3.060544 1.06902,0.85268 3.14386,-0.562346 3.14386,-0.562346 0,0 0.24653,2.498726 1.1501,3.098123 0.75679,0.501981 2.7828,-0.537301 2.7828,-0.537301 0,0 0.15744,1.890518 1.4979,2.635303 1.34047,0.510197 2.38425,-0.679786 2.38425,-0.679786 0,0 0.27369,1.915687 1.61416,2.362492 1.34045,0.446805 2.60774,-0.886675 2.60774,-0.886675 l -0.19082,11.184053 -11.70888,0 0,6.851235 12.6025,0 c 0,0 -0.58603,1.889548 0.0891,2.546398 0.53593,0.52146 2.13053,-0.13426 2.13053,-0.13426 0,0 -0.62634,1.46354 0.10397,2.14529 0.67006,0.62576 2.23442,-0.31255 2.23442,-0.31255 0,0 -0.462,1.75759 0.52112,2.21929 1.0278,0.55094 2.12988,-0.81944 2.12988,-0.81944 0,0 -0.31337,2.1448 1.02713,2.5916 1.34045,0.44681 2.42807,-1.93654 2.42807,-1.93654 0,0 0.59544,2.51744 1.78695,2.51744 1.19152,0 1.86224,-2.54707 1.86224,-2.54707 0,0 1.10129,2.29002 2.29427,1.84715 1.32565,-0.49216 1.17607,-2.35322 1.17607,-2.35322 0,0 1.53443,1.59402 2.33863,1.10219 0.76237,-0.46629 0.56552,-2.54707 0.56552,-2.54707 0,0 1.53232,1.02574 2.35378,0.55061 0.81608,-0.47202 0.2821,-2.51776 0.2821,-2.51776 0,0 1.62387,0.52146 2.21963,-0.22332 0.59576,-0.74461 0.3722,-2.128898 0.3722,-2.128898 l 11.91518,0 0,-6.828645 -11.31944,0 -0.0581,-10.320308 c 0,0 1.39413,-0.227021 2.31042,-0.998097 0.9209,-0.654277 1.32229,-2.619175 1.32229,-2.619175 0,0 1.44155,1.074924 2.50139,0.454243 1.11007,-0.649989 1.00917,-2.475755 1.00917,-2.475755 0,0 2.38928,1.163171 3.17631,0.322935 0.79035,-0.843675 0.6156,-2.855761 0.56821,-2.876062 0,0 2.18666,1.300011 3.14779,0.298014 1.2319,-0.86676 1.00687,-2.98425 1.00687,-2.98425 0,0 2.00835,0.984746 2.80838,-0.116468 0.96337,-0.695013 0.69089,-2.561582 0.69089,-2.561582 0,0 1.66783,0.518681 2.45288,-0.474311 0.74845,-0.946658 -0.13122,-3.16022 -0.13122,-3.16022 0,0 2.07252,-0.190541 2.49589,-1.324664 0.45804,-1.227282 -1.11163,-2.540719 -1.11163,-2.540719 0,0 2.16175,-0.06938 2.4726,-1.488061 0.28873,-1.31815 -1.41215,-2.219818 -1.41215,-2.219818 0,0 2.206,-0.240547 2.36811,-1.75533 0.15112,-1.411801 -1.50713,-2.385439 -1.50713,-2.385439 0,0 2.01167,-0.594976 2.16897,-2.011361 0.17116,-1.54098 -1.50268,-2.26579 -1.50268,-2.26579 0,0 1.44696,-0.57202 1.78158,-1.901795 0.30256,-1.202396 -1.53692,-2.44363 -1.53692,-2.44363 0,0 1.74376,-1.381836 1.74376,-2.909201 0,-1.527365 -1.74376,-2.437238 -1.74376,-2.437238 z"
     id="path3050-9-5-7"
     style="fill:#f1f1f1;fill-opacity:1;stroke:none" />
</svg>
